<svg xmlns="http://www.w3.org/2000/svg" width="1920" height="1080"><path d="M1022,497L989,387L926,465Z" fill="#7eacd1" stroke="#7eacd1" stroke-width="1.51"/><path d="M1022,497L1126,488L989,387Z" fill="#78a9d0" stroke="#78a9d0" stroke-width="1.51"/><path d="M989,387L919,303L926,465Z" fill="#8ab1d4" stroke="#8ab1d4" stroke-width="1.51"/><path d="M1001,210L919,303L989,387Z" fill="#91b4d6" stroke="#91b4d6" stroke-width="1.51"/><path d="M866,639L1060,607L1022,497Z" fill="#6da5cd" stroke="#6da5cd" stroke-width="1.51"/><path d="M1022,497L1060,607L1126,488Z" fill="#6ca5cd" stroke="#6ca5cd" stroke-width="1.51"/><path d="M1126,488L1168,334L989,387Z" fill="#7baad0" stroke="#7baad0" stroke-width="1.51"/><path d="M926,465L866,639L1022,497Z" fill="#77aacf" stroke="#77aacf" stroke-width="1.51"/><path d="M745,603L866,639L926,465Z" fill="#7aabd1" stroke="#7aabd1" stroke-width="1.51"/><path d="M919,303L788,328L926,465Z" fill="#91b4d6" stroke="#91b4d6" stroke-width="1.51"/><path d="M1168,334L1001,210L989,387Z" fill="#8ab0d3" stroke="#8ab0d3" stroke-width="1.51"/><path d="M919,303L875,205L788,328Z" fill="#9db9d9" stroke="#9db9d9" stroke-width="1.51"/><path d="M1001,210L875,205L919,303Z" fill="#9bb9d8" stroke="#9bb9d8" stroke-width="1.51"/><path d="M788,328L703,467L926,465Z" fill="#91b4d6" stroke="#91b4d6" stroke-width="1.51"/><path d="M703,467L745,603L926,465Z" fill="#87b0d3" stroke="#87b0d3" stroke-width="1.51"/><path d="M1060,607L1205,643L1126,488Z" fill="#609fca" stroke="#609fca" stroke-width="1.51"/><path d="M1126,488L1278,499L1168,334Z" fill="#6ea4cd" stroke="#6ea4cd" stroke-width="1.51"/><path d="M1170,736L1205,643L1060,607Z" fill="#529ac6" stroke="#529ac6" stroke-width="1.51"/><path d="M1205,643L1278,499L1126,488Z" fill="#5e9fc9" stroke="#5e9fc9" stroke-width="1.51"/><path d="M866,639L1058,764L1060,607Z" fill="#609fc9" stroke="#609fc9" stroke-width="1.51"/><path d="M864,770L1058,764L866,639Z" fill="#5e9ec8" stroke="#5e9ec8" stroke-width="1.51"/><path d="M703,467L654,471L745,603Z" fill="#8db3d5" stroke="#8db3d5" stroke-width="1.51"/><path d="M658,286L654,471L703,467Z" fill="#9db9d9" stroke="#9db9d9" stroke-width="1.51"/><path d="M658,286L703,467L788,328Z" fill="#9fbada" stroke="#9fbada" stroke-width="1.51"/><path d="M875,205L748,205L788,328Z" fill="#a5bcdb" stroke="#a5bcdb" stroke-width="1.51"/><path d="M1427,558L1396,428L1278,499Z" fill="#5b99c6" stroke="#5b99c6" stroke-width="1.51"/><path d="M1058,764L1170,736L1060,607Z" fill="#5199c6" stroke="#5199c6" stroke-width="1.51"/><path d="M1168,334L1170,159L1001,210Z" fill="#8eb1d4" stroke="#8eb1d4" stroke-width="1.51"/><path d="M1001,210L1034,77L875,205Z" fill="#a0bbda" stroke="#a0bbda" stroke-width="1.51"/><path d="M875,205L777,53L748,205Z" fill="#aec1dd" stroke="#aec1dd" stroke-width="1.51"/><path d="M1336,183L1170,159L1168,334Z" fill="#86add2" stroke="#86add2" stroke-width="1.51"/><path d="M776,763L864,770L866,639Z" fill="#68a1ca" stroke="#68a1ca" stroke-width="1.51"/><path d="M748,205L658,286L788,328Z" fill="#a7bddb" stroke="#a7bddb" stroke-width="1.51"/><path d="M1278,499L1332,323L1168,334Z" fill="#70a4cc" stroke="#70a4cc" stroke-width="1.51"/><path d="M1170,159L1034,77L1001,210Z" fill="#9bb8d8" stroke="#9bb8d8" stroke-width="1.51"/><path d="M625,618L776,763L745,603Z" fill="#7aa9cf" stroke="#7aa9cf" stroke-width="1.51"/><path d="M745,603L776,763L866,639Z" fill="#72a6cd" stroke="#72a6cd" stroke-width="1.51"/><path d="M654,471L625,618L745,603Z" fill="#8ab1d4" stroke="#8ab1d4" stroke-width="1.51"/><path d="M454,426L625,618L654,471Z" fill="#98b7d8" stroke="#98b7d8" stroke-width="1.51"/><path d="M1278,499L1396,428L1332,323Z" fill="#689ec9" stroke="#689ec9" stroke-width="1.51"/><path d="M1342,662L1278,499L1205,643Z" fill="#4f98c4" stroke="#4f98c4" stroke-width="1.51"/><path d="M1170,736L1342,662L1205,643Z" fill="#4495c3" stroke="#4495c3" stroke-width="1.51"/><path d="M776,763L847,844L864,770Z" fill="#639dc8" stroke="#639dc8" stroke-width="1.51"/><path d="M864,770L1006,880L1058,764Z" fill="#5397c5" stroke="#5397c5" stroke-width="1.51"/><path d="M1058,764L1144,845L1170,736Z" fill="#4592c2" stroke="#4592c2" stroke-width="1.51"/><path d="M813,886L847,844L776,763Z" fill="#629ac7" stroke="#629ac7" stroke-width="1.51"/><path d="M1170,159L1157,14L1034,77Z" fill="#9cb9d8" stroke="#9cb9d8" stroke-width="1.51"/><path d="M1336,183L1243,115L1170,159Z" fill="#8db0d3" stroke="#8db0d3" stroke-width="1.51"/><path d="M1336,183L1168,334L1332,323Z" fill="#7ca8cf" stroke="#7ca8cf" stroke-width="1.51"/><path d="M1006,880L1144,845L1058,764Z" fill="#4891c2" stroke="#4891c2" stroke-width="1.51"/><path d="M1170,736L1340,785L1342,662Z" fill="#3890c0" stroke="#3890c0" stroke-width="1.51"/><path d="M1034,77L838,43L875,205Z" fill="#aac0dd" stroke="#aac0dd" stroke-width="1.51"/><path d="M748,205L570,180L658,286Z" fill="#b2c2de" stroke="#b2c2de" stroke-width="1.51"/><path d="M847,844L1006,880L864,770Z" fill="#5997c5" stroke="#5997c5" stroke-width="1.51"/><path d="M1417,242L1336,183L1332,323Z" fill="#7da5ce" stroke="#7da5ce" stroke-width="1.51"/><path d="M838,43L777,53L875,205Z" fill="#b1c3de" stroke="#b1c3de" stroke-width="1.51"/><path d="M1342,662L1427,558L1278,499Z" fill="#5096c4" stroke="#5096c4" stroke-width="1.51"/><path d="M1034,77L971,-13L838,43Z" fill="#acc3de" stroke="#acc3de" stroke-width="1.51"/><path d="M838,43L702,-102L777,53Z" fill="#bccae2" stroke="#bccae2" stroke-width="1.51"/><path d="M1157,14L971,-13L1034,77Z" fill="#a5bfdc" stroke="#a5bfdc" stroke-width="1.51"/><path d="M1243,115L1157,14L1170,159Z" fill="#96b5d6" stroke="#96b5d6" stroke-width="1.51"/><path d="M1244,-120L1157,14L1243,115Z" fill="#9bb9d8" stroke="#9bb9d8" stroke-width="1.51"/><path d="M847,844L900,1012L1006,880Z" fill="#5390c2" stroke="#5390c2" stroke-width="1.51"/><path d="M674,866L813,886L776,763Z" fill="#679bc8" stroke="#679bc8" stroke-width="1.51"/><path d="M1144,845L1267,828L1170,736Z" fill="#3b8ebf" stroke="#3b8ebf" stroke-width="1.51"/><path d="M1342,662L1469,729L1427,558Z" fill="#418dc0" stroke="#418dc0" stroke-width="1.51"/><path d="M1260,1054L1267,828L1144,845Z" fill="#2e84bb" stroke="#2e84bb" stroke-width="1.51"/><path d="M1482,377L1417,242L1332,323Z" fill="#739fca" stroke="#739fca" stroke-width="1.51"/><path d="M1336,183L1374,93L1243,115Z" fill="#8badd2" stroke="#8badd2" stroke-width="1.51"/><path d="M1482,377L1332,323L1396,428Z" fill="#6b9cc9" stroke="#6b9cc9" stroke-width="1.51"/><path d="M1267,828L1340,785L1170,736Z" fill="#338cbf" stroke="#338cbf" stroke-width="1.51"/><path d="M658,286L454,426L654,471Z" fill="#a5bcdb" stroke="#a5bcdb" stroke-width="1.51"/><path d="M595,114L570,180L748,205Z" fill="#bac6e0" stroke="#bac6e0" stroke-width="1.51"/><path d="M1566,477L1482,377L1396,428Z" fill="#6196c5" stroke="#6196c5" stroke-width="1.51"/><path d="M526,87L595,114L644,-59Z" fill="#c6cee5" stroke="#c6cee5" stroke-width="1.51"/><path d="M777,53L595,114L748,205Z" fill="#b8c6e0" stroke="#b8c6e0" stroke-width="1.51"/><path d="M573,796L674,866L776,763Z" fill="#70a0cb" stroke="#70a0cb" stroke-width="1.51"/><path d="M1417,242L1374,93L1336,183Z" fill="#85a8cf" stroke="#85a8cf" stroke-width="1.51"/><path d="M1533,220L1374,93L1417,242Z" fill="#81a4cd" stroke="#81a4cd" stroke-width="1.51"/><path d="M442,358L658,286L458,211Z" fill="#b5c4df" stroke="#b5c4df" stroke-width="1.51"/><path d="M442,358L454,426L658,286Z" fill="#aec0dd" stroke="#aec0dd" stroke-width="1.51"/><path d="M625,618L573,796L776,763Z" fill="#77a7ce" stroke="#77a7ce" stroke-width="1.51"/><path d="M454,426L490,650L625,618Z" fill="#95b6d7" stroke="#95b6d7" stroke-width="1.51"/><path d="M490,650L573,796L625,618Z" fill="#83add1" stroke="#83add1" stroke-width="1.51"/><path d="M346,706L484,763L490,650Z" fill="#8bafd3" stroke="#8bafd3" stroke-width="1.51"/><path d="M458,211L658,286L570,180Z" fill="#b9c5df" stroke="#b9c5df" stroke-width="1.51"/><path d="M971,-13L882,-101L838,43Z" fill="#b4c7e1" stroke="#b4c7e1" stroke-width="1.51"/><path d="M882,-162L882,-101L1049,-224Z" fill="#b9cce3" stroke="#b9cce3" stroke-width="1.51"/><path d="M1137,-96L971,-13L1157,14Z" fill="#a6c0dd" stroke="#a6c0dd" stroke-width="1.51"/><path d="M1427,558L1566,477L1396,428Z" fill="#5994c4" stroke="#5994c4" stroke-width="1.51"/><path d="M1340,785L1469,729L1342,662Z" fill="#338abe" stroke="#338abe" stroke-width="1.51"/><path d="M1521,716L1469,729L1465,836Z" fill="#2882ba" stroke="#2882ba" stroke-width="1.51"/><path d="M1244,-120L1137,-96L1157,14Z" fill="#a2bedb" stroke="#a2bedb" stroke-width="1.51"/><path d="M1006,880L1126,1044L1144,845Z" fill="#3f88bd" stroke="#3f88bd" stroke-width="1.51"/><path d="M1465,836L1469,729L1340,785Z" fill="#2984ba" stroke="#2984ba" stroke-width="1.51"/><path d="M813,886L900,1012L847,844Z" fill="#5a92c3" stroke="#5a92c3" stroke-width="1.51"/><path d="M756,1029L900,1012L813,886Z" fill="#5a8ebf" stroke="#5a8ebf" stroke-width="1.51"/><path d="M1469,729L1531,617L1427,558Z" fill="#408bbf" stroke="#408bbf" stroke-width="1.51"/><path d="M526,87L458,211L570,180Z" fill="#c3cae3" stroke="#c3cae3" stroke-width="1.51"/><path d="M526,87L570,180L595,114Z" fill="#c2cae2" stroke="#c2cae2" stroke-width="1.51"/><path d="M1482,377L1533,220L1417,242Z" fill="#749dca" stroke="#749dca" stroke-width="1.51"/><path d="M1531,617L1566,477L1427,558Z" fill="#4d8fc1" stroke="#4d8fc1" stroke-width="1.51"/><path d="M484,763L544,831L573,796Z" fill="#7ca5ce" stroke="#7ca5ce" stroke-width="1.51"/><path d="M573,796L544,831L674,866Z" fill="#76a1cb" stroke="#76a1cb" stroke-width="1.51"/><path d="M674,866L756,1029L813,886Z" fill="#6394c4" stroke="#6394c4" stroke-width="1.51"/><path d="M644,-59L595,114L777,53Z" fill="#c1cce3" stroke="#c1cce3" stroke-width="1.51"/><path d="M490,650L484,763L573,796Z" fill="#81abd0" stroke="#81abd0" stroke-width="1.51"/><path d="M375,492L490,650L454,426Z" fill="#a0bbda" stroke="#a0bbda" stroke-width="1.51"/><path d="M1604,299L1533,220L1482,377Z" fill="#7099c7" stroke="#7099c7" stroke-width="1.51"/><path d="M1531,617L1667,471L1566,477Z" fill="#4f8cbf" stroke="#4f8cbf" stroke-width="1.51"/><path d="M1469,729L1521,716L1531,617Z" fill="#3586bc" stroke="#3586bc" stroke-width="1.51"/><path d="M1465,836L1340,785L1391,988Z" fill="#227eb8" stroke="#227eb8" stroke-width="1.51"/><path d="M702,-102L644,-59L777,53Z" fill="#c4cfe5" stroke="#c4cfe5" stroke-width="1.51"/><path d="M353,369L375,492L454,426Z" fill="#aec1de" stroke="#aec1de" stroke-width="1.51"/><path d="M353,369L454,426L442,358Z" fill="#b2c2de" stroke="#b2c2de" stroke-width="1.51"/><path d="M1059,1058L1126,1044L1006,880Z" fill="#4084b8" stroke="#4084b8" stroke-width="1.51"/><path d="M900,1012L1059,1058L1006,880Z" fill="#4889bb" stroke="#4889bb" stroke-width="1.51"/><path d="M1391,988L1340,785L1267,828Z" fill="#2782b9" stroke="#2782b9" stroke-width="1.51"/><path d="M882,-101L702,-102L838,43Z" fill="#bdcce3" stroke="#bdcce3" stroke-width="1.51"/><path d="M882,-101L759,-166L702,-102Z" fill="#c2d0e6" stroke="#c2d0e6" stroke-width="1.51"/><path d="M1049,-224L882,-101L971,-13Z" fill="#b5c9e2" stroke="#b5c9e2" stroke-width="1.51"/><path d="M619,1020L756,1029L674,866Z" fill="#6793c2" stroke="#6793c2" stroke-width="1.51"/><path d="M900,1012L1047,1111L1059,1058Z" fill="#4583b4" stroke="#4583b4" stroke-width="1.51"/><path d="M1137,-96L1049,-224L971,-13Z" fill="#aec5df" stroke="#aec5df" stroke-width="1.51"/><path d="M1374,93L1244,-120L1243,115Z" fill="#94b4d6" stroke="#94b4d6" stroke-width="1.51"/><path d="M1444,-61L1244,-120L1374,93Z" fill="#96b3d6" stroke="#96b3d6" stroke-width="1.51"/><path d="M1594,65L1444,-61L1374,93Z" fill="#8daad1" stroke="#8daad1" stroke-width="1.51"/><path d="M1566,477L1604,299L1482,377Z" fill="#6494c5" stroke="#6494c5" stroke-width="1.51"/><path d="M1667,471L1604,299L1566,477Z" fill="#5f8fc0" stroke="#5f8fc0" stroke-width="1.51"/><path d="M328,248L353,369L442,358Z" fill="#bbc7e1" stroke="#bbc7e1" stroke-width="1.51"/><path d="M328,248L442,358L458,211Z" fill="#bfc8e2" stroke="#bfc8e2" stroke-width="1.51"/><path d="M575,-150L510,-31L644,-59Z" fill="#cfd5e9" stroke="#cfd5e9" stroke-width="1.51"/><path d="M882,-162L759,-166L882,-101Z" fill="#bfcfe5" stroke="#bfcfe5" stroke-width="1.51"/><path d="M1126,1044L1260,1054L1144,845Z" fill="#3281b6" stroke="#3281b6" stroke-width="1.51"/><path d="M1208,1122L1260,1054L1126,1044Z" fill="#2d7bae" stroke="#2d7bae" stroke-width="1.51"/><path d="M1059,1058L1047,1111L1126,1044Z" fill="#3c80b1" stroke="#3c80b1" stroke-width="1.51"/><path d="M873,1107L1047,1111L900,1012Z" fill="#4b84b4" stroke="#4b84b4" stroke-width="1.51"/><path d="M756,1029L873,1107L900,1012Z" fill="#5589b8" stroke="#5589b8" stroke-width="1.51"/><path d="M372,81L328,248L458,211Z" fill="#cacee5" stroke="#cacee5" stroke-width="1.51"/><path d="M644,-59L510,-31L526,87Z" fill="#ccd1e7" stroke="#ccd1e7" stroke-width="1.51"/><path d="M575,-150L644,-59L702,-102Z" fill="#ccd4e8" stroke="#ccd4e8" stroke-width="1.51"/><path d="M1208,-203L1049,-224L1137,-96Z" fill="#abc5df" stroke="#abc5df" stroke-width="1.51"/><path d="M882,-162L1049,-224L759,-166Z" fill="#bdcee5" stroke="#bdcee5" stroke-width="1.51"/><path d="M1260,1054L1391,988L1267,828Z" fill="#217db6" stroke="#217db6" stroke-width="1.51"/><path d="M756,1029L762,1173L873,1107Z" fill="#5988b4" stroke="#5988b4" stroke-width="1.51"/><path d="M502,966L619,1020L674,866Z" fill="#6f97c6" stroke="#6f97c6" stroke-width="1.51"/><path d="M502,966L674,866L544,831Z" fill="#749dc9" stroke="#749dc9" stroke-width="1.51"/><path d="M1754,634L1667,471L1531,617Z" fill="#4587b9" stroke="#4587b9" stroke-width="1.51"/><path d="M1657,763L1531,617L1521,716Z" fill="#2f82b9" stroke="#2f82b9" stroke-width="1.51"/><path d="M1657,763L1521,716L1606,855Z" fill="#207cb4" stroke="#207cb4" stroke-width="1.51"/><path d="M1594,65L1374,93L1533,220Z" fill="#85a3cd" stroke="#85a3cd" stroke-width="1.51"/><path d="M1244,-120L1208,-203L1137,-96Z" fill="#a4c0dc" stroke="#a4c0dc" stroke-width="1.51"/><path d="M301,554L490,650L375,492Z" fill="#9ebad9" stroke="#9ebad9" stroke-width="1.51"/><path d="M372,81L458,211L526,87Z" fill="#cacee4" stroke="#cacee4" stroke-width="1.51"/><path d="M1278,-250L1208,-203L1244,-120Z" fill="#a3c0dc" stroke="#a3c0dc" stroke-width="1.51"/><path d="M484,763L502,966L544,831Z" fill="#7ba2cc" stroke="#7ba2cc" stroke-width="1.51"/><path d="M301,554L346,706L490,650Z" fill="#98b6d7" stroke="#98b6d7" stroke-width="1.51"/><path d="M301,554L375,492L222,432Z" fill="#acc1dd" stroke="#acc1dd" stroke-width="1.51"/><path d="M222,432L375,492L353,369Z" fill="#b3c4de" stroke="#b3c4de" stroke-width="1.51"/><path d="M403,1036L502,966L299,926Z" fill="#7d9bc7" stroke="#7d9bc7" stroke-width="1.51"/><path d="M1260,1054L1331,1093L1391,988Z" fill="#1e77ad" stroke="#1e77ad" stroke-width="1.51"/><path d="M1047,1111L1208,1122L1126,1044Z" fill="#367dae" stroke="#367dae" stroke-width="1.51"/><path d="M1153,1296L1208,1122L1047,1111Z" fill="#3377a4" stroke="#3377a4" stroke-width="1.51"/><path d="M510,-31L372,81L526,87Z" fill="#cfd2e7" stroke="#cfd2e7" stroke-width="1.51"/><path d="M1663,80L1594,65L1533,220Z" fill="#829fca" stroke="#829fca" stroke-width="1.51"/><path d="M1728,255L1533,220L1604,299Z" fill="#7397c4" stroke="#7397c4" stroke-width="1.51"/><path d="M1667,471L1698,329L1604,299Z" fill="#6490bf" stroke="#6490bf" stroke-width="1.51"/><path d="M759,-166L575,-150L702,-102Z" fill="#cbd4e8" stroke="#cbd4e8" stroke-width="1.51"/><path d="M510,-31L355,-42L372,81Z" fill="#d6d6e9" stroke="#d6d6e9" stroke-width="1.51"/><path d="M451,-211L575,-150L759,-166Z" fill="#d3d8ea" stroke="#d3d8ea" stroke-width="1.51"/><path d="M328,248L264,348L353,369Z" fill="#bfc9e2" stroke="#bfc9e2" stroke-width="1.51"/><path d="M265,255L264,348L328,248Z" fill="#c4cce4" stroke="#c4cce4" stroke-width="1.51"/><path d="M1208,1122L1331,1093L1260,1054Z" fill="#2278ab" stroke="#2278ab" stroke-width="1.51"/><path d="M1606,855L1465,836L1523,1047Z" fill="#1174b2" stroke="#1174b2" stroke-width="1.51"/><path d="M1606,855L1521,716L1465,836Z" fill="#207db7" stroke="#207db7" stroke-width="1.51"/><path d="M1789,320L1728,255L1698,329Z" fill="#6b90bc" stroke="#6b90bc" stroke-width="1.51"/><path d="M1523,1047L1465,836L1391,988Z" fill="#1474b2" stroke="#1474b2" stroke-width="1.51"/><path d="M372,81L265,255L328,248Z" fill="#cccfe5" stroke="#cccfe5" stroke-width="1.51"/><path d="M1467,-174L1244,-120L1444,-61Z" fill="#9ab6d7" stroke="#9ab6d7" stroke-width="1.51"/><path d="M1467,-174L1278,-250L1244,-120Z" fill="#9fbbda" stroke="#9fbbda" stroke-width="1.51"/><path d="M1208,-203L1278,-250L1049,-224Z" fill="#aac5df" stroke="#aac5df" stroke-width="1.51"/><path d="M643,1126L762,1173L756,1029Z" fill="#5f8ab6" stroke="#5f8ab6" stroke-width="1.51"/><path d="M873,1107L973,1263L1047,1111Z" fill="#467fab" stroke="#467fab" stroke-width="1.51"/><path d="M643,1126L756,1029L619,1020Z" fill="#658ebb" stroke="#658ebb" stroke-width="1.51"/><path d="M510,1187L643,1126L619,1020Z" fill="#6a8eb8" stroke="#6a8eb8" stroke-width="1.51"/><path d="M60,319L222,432L264,348Z" fill="#c0cce3" stroke="#c0cce3" stroke-width="1.51"/><path d="M264,348L222,432L353,369Z" fill="#b9c7e1" stroke="#b9c7e1" stroke-width="1.51"/><path d="M301,554L255,690L346,706Z" fill="#9ab8d8" stroke="#9ab8d8" stroke-width="1.51"/><path d="M1606,855L1650,823L1657,763Z" fill="#1c77b0" stroke="#1c77b0" stroke-width="1.51"/><path d="M1697,971L1650,823L1606,855Z" fill="#1271ad" stroke="#1271ad" stroke-width="1.51"/><path d="M1594,65L1532,-87L1444,-61Z" fill="#8faad1" stroke="#8faad1" stroke-width="1.51"/><path d="M1594,65L1670,-96L1532,-87Z" fill="#8ea6ce" stroke="#8ea6ce" stroke-width="1.51"/><path d="M1698,329L1728,255L1604,299Z" fill="#6d93c0" stroke="#6d93c0" stroke-width="1.51"/><path d="M1789,320L1698,329L1808,469Z" fill="#618cb9" stroke="#618cb9" stroke-width="1.51"/><path d="M1754,634L1531,617L1657,763Z" fill="#3481b5" stroke="#3481b5" stroke-width="1.51"/><path d="M172,603L255,690L301,554Z" fill="#a1bcda" stroke="#a1bcda" stroke-width="1.51"/><path d="M299,926L502,966L484,763Z" fill="#80a1cc" stroke="#80a1cc" stroke-width="1.51"/><path d="M502,966L510,1187L619,1020Z" fill="#7092bd" stroke="#7092bd" stroke-width="1.51"/><path d="M1728,255L1663,80L1533,220Z" fill="#7b99c5" stroke="#7b99c5" stroke-width="1.51"/><path d="M1532,-87L1467,-174L1444,-61Z" fill="#96b0d4" stroke="#96b0d4" stroke-width="1.51"/><path d="M1565,-222L1467,-174L1532,-87Z" fill="#97b0d4" stroke="#97b0d4" stroke-width="1.51"/><path d="M790,1232L850,1225L762,1173Z" fill="#5480a7" stroke="#5480a7" stroke-width="1.51"/><path d="M762,1173L850,1225L873,1107Z" fill="#5482ad" stroke="#5482ad" stroke-width="1.51"/><path d="M1328,1283L1459,1167L1331,1093Z" fill="#196c9e" stroke="#196c9e" stroke-width="1.51"/><path d="M1789,757L1754,634L1657,763Z" fill="#287baf" stroke="#287baf" stroke-width="1.51"/><path d="M372,81L250,27L265,255Z" fill="#d4d4e8" stroke="#d4d4e8" stroke-width="1.51"/><path d="M451,-211L355,-42L510,-31Z" fill="#dadaeb" stroke="#dadaeb" stroke-width="1.51"/><path d="M1459,1167L1523,1047L1391,988Z" fill="#136ea8" stroke="#136ea8" stroke-width="1.51"/><path d="M1459,1167L1391,988L1331,1093Z" fill="#1971a8" stroke="#1971a8" stroke-width="1.51"/><path d="M641,1272L790,1232L762,1173Z" fill="#5980a6" stroke="#5980a6" stroke-width="1.51"/><path d="M1808,469L1698,329L1667,471Z" fill="#5b8bb9" stroke="#5b8bb9" stroke-width="1.51"/><path d="M1728,255L1781,186L1663,80Z" fill="#7a97c0" stroke="#7a97c0" stroke-width="1.51"/><path d="M790,1232L973,1263L850,1225Z" fill="#4c7ba2" stroke="#4c7ba2" stroke-width="1.51"/><path d="M850,1225L973,1263L873,1107Z" fill="#4b7da7" stroke="#4b7da7" stroke-width="1.51"/><path d="M1754,634L1808,469L1667,471Z" fill="#4c86b5" stroke="#4c86b5" stroke-width="1.51"/><path d="M299,926L484,763L346,706Z" fill="#88abd1" stroke="#88abd1" stroke-width="1.51"/><path d="M643,1126L641,1272L762,1173Z" fill="#5f84ad" stroke="#5f84ad" stroke-width="1.51"/><path d="M248,899L299,926L346,706Z" fill="#8aa9d0" stroke="#8aa9d0" stroke-width="1.51"/><path d="M222,432L172,603L301,554Z" fill="#abc2de" stroke="#abc2de" stroke-width="1.51"/><path d="M40,428L172,603L222,432Z" fill="#b4c7e0" stroke="#b4c7e0" stroke-width="1.51"/><path d="M248,899L346,706L255,690Z" fill="#8fb0d4" stroke="#8fb0d4" stroke-width="1.51"/><path d="M1789,320L1781,186L1728,255Z" fill="#7091bc" stroke="#7091bc" stroke-width="1.51"/><path d="M1663,80L1670,-96L1594,65Z" fill="#89a2ca" stroke="#89a2ca" stroke-width="1.51"/><path d="M1842,117L1781,186L2009,183Z" fill="#7891b7" stroke="#7891b7" stroke-width="1.51"/><path d="M355,-42L250,27L372,81Z" fill="#d9d8ea" stroke="#d9d8ea" stroke-width="1.51"/><path d="M265,255L60,319L264,348Z" fill="#c6cee5" stroke="#c6cee5" stroke-width="1.51"/><path d="M575,-150L451,-211L510,-31Z" fill="#d6d9ea" stroke="#d6d9ea" stroke-width="1.51"/><path d="M355,-42L185,-83L250,27Z" fill="#e0dded" stroke="#e0dded" stroke-width="1.51"/><path d="M394,-235L451,-211L759,-166Z" fill="#d8dbeb" stroke="#d8dbeb" stroke-width="1.51"/><path d="M394,-235L759,-166L1049,-224Z" fill="#cbd5e8" stroke="#cbd5e8" stroke-width="1.51"/><path d="M1806,880L1789,757L1650,823Z" fill="#1a73aa" stroke="#1a73aa" stroke-width="1.51"/><path d="M1328,1283L1331,1093L1208,1122Z" fill="#1f71a3" stroke="#1f71a3" stroke-width="1.51"/><path d="M1754,634L1864,588L1808,469Z" fill="#4581b0" stroke="#4581b0" stroke-width="1.51"/><path d="M1650,823L1789,757L1657,763Z" fill="#1f78ae" stroke="#1f78ae" stroke-width="1.51"/><path d="M1697,971L1606,855L1523,1047Z" fill="#056dac" stroke="#056dac" stroke-width="1.51"/><path d="M299,926L229,1136L403,1036Z" fill="#819bc4" stroke="#819bc4" stroke-width="1.51"/><path d="M179,956L248,899L92,849Z" fill="#8da9d0" stroke="#8da9d0" stroke-width="1.51"/><path d="M973,1263L1153,1296L1047,1111Z" fill="#3a75a0" stroke="#3a75a0" stroke-width="1.51"/><path d="M487,1316L1153,1296L973,1263Z" fill="#4a769b" stroke="#4a769b" stroke-width="1.51"/><path d="M1467,-174L1565,-222L1278,-250Z" fill="#9cb6d8" stroke="#9cb6d8" stroke-width="1.51"/><path d="M1870,-101L1670,-96L1663,80Z" fill="#8aa1c6" stroke="#8aa1c6" stroke-width="1.51"/><path d="M330,1199L510,1187L403,1036Z" fill="#7791b8" stroke="#7791b8" stroke-width="1.51"/><path d="M403,1036L510,1187L502,966Z" fill="#7594be" stroke="#7594be" stroke-width="1.51"/><path d="M790,1232L641,1272L973,1263Z" fill="#527ba1" stroke="#527ba1" stroke-width="1.51"/><path d="M1571,1158L1697,971L1523,1047Z" fill="#0468a4" stroke="#0468a4" stroke-width="1.51"/><path d="M1670,-96L1565,-222L1532,-87Z" fill="#94abd1" stroke="#94abd1" stroke-width="1.51"/><path d="M1789,757L1864,588L1754,634Z" fill="#347cad" stroke="#347cad" stroke-width="1.51"/><path d="M1808,469L1975,354L1789,320Z" fill="#5e88b2" stroke="#5e88b2" stroke-width="1.51"/><path d="M1915,621L1864,588L1789,757Z" fill="#347aaa" stroke="#347aaa" stroke-width="1.51"/><path d="M510,1187L641,1272L643,1126Z" fill="#6587ad" stroke="#6587ad" stroke-width="1.51"/><path d="M1153,1296L1328,1283L1208,1122Z" fill="#256e9b" stroke="#256e9b" stroke-width="1.51"/><path d="M1459,1167L1571,1158L1523,1047Z" fill="#0c68a2" stroke="#0c68a2" stroke-width="1.51"/><path d="M451,-211L394,-235L355,-42Z" fill="#dfdeed" stroke="#dfdeed" stroke-width="1.51"/><path d="M1278,-250L394,-235L1049,-224Z" fill="#bed0e6" stroke="#bed0e6" stroke-width="1.51"/><path d="M1781,186L1842,117L1663,80Z" fill="#7e98c0" stroke="#7e98c0" stroke-width="1.51"/><path d="M2009,183L1781,186L1789,320Z" fill="#718fb7" stroke="#718fb7" stroke-width="1.51"/><path d="M1531,1329L1571,1158L1459,1167Z" fill="#0a6195" stroke="#0a6195" stroke-width="1.51"/><path d="M1825,994L1806,880L1697,971Z" fill="#0568a3" stroke="#0568a3" stroke-width="1.51"/><path d="M1697,971L1806,880L1650,823Z" fill="#106ea9" stroke="#106ea9" stroke-width="1.51"/><path d="M37,155L265,255L53,87Z" fill="#d8d8e9" stroke="#d8d8e9" stroke-width="1.51"/><path d="M37,155L60,319L265,255Z" fill="#d0d4e8" stroke="#d0d4e8" stroke-width="1.51"/><path d="M92,849L248,899L255,690Z" fill="#91afd3" stroke="#91afd3" stroke-width="1.51"/><path d="M60,319L40,428L222,432Z" fill="#c1cde4" stroke="#c1cde4" stroke-width="1.51"/><path d="M1917,736L1915,621L1789,757Z" fill="#2a76a7" stroke="#2a76a7" stroke-width="1.51"/><path d="M1997,460L1975,354L1808,469Z" fill="#5682ab" stroke="#5682ab" stroke-width="1.51"/><path d="M248,899L179,956L299,926Z" fill="#88a4ce" stroke="#88a4ce" stroke-width="1.51"/><path d="M49,711L255,690L172,603Z" fill="#9fbbda" stroke="#9fbbda" stroke-width="1.51"/><path d="M1670,-96L1697,-187L1565,-222Z" fill="#94aacf" stroke="#94aacf" stroke-width="1.51"/><path d="M1790,-187L1697,-187L1670,-96Z" fill="#91a7ca" stroke="#91a7ca" stroke-width="1.51"/><path d="M40,428L37,568L172,603Z" fill="#b2c7e0" stroke="#b2c7e0" stroke-width="1.51"/><path d="M394,-235L185,-83L355,-42Z" fill="#e2dfee" stroke="#e2dfee" stroke-width="1.51"/><path d="M1328,1283L1405,1318L1459,1167Z" fill="#166493" stroke="#166493" stroke-width="1.51"/><path d="M1153,1296L1405,1318L1328,1283Z" fill="#1c6590" stroke="#1c6590" stroke-width="1.51"/><path d="M352,1334L1405,1318L1153,1296Z" fill="#3f7096" stroke="#3f7096" stroke-width="1.51"/><path d="M37,568L49,711L172,603Z" fill="#a7c1dd" stroke="#a7c1dd" stroke-width="1.51"/><path d="M1806,880L1917,736L1789,757Z" fill="#1d72a6" stroke="#1d72a6" stroke-width="1.51"/><path d="M49,711L92,849L255,690Z" fill="#98b7d7" stroke="#98b7d7" stroke-width="1.51"/><path d="M40,428L-2,419L37,568Z" fill="#bbcce3" stroke="#bbcce3" stroke-width="1.51"/><path d="M37,568L-31,651L49,711Z" fill="#a8c2dd" stroke="#a8c2dd" stroke-width="1.51"/><path d="M60,319L-2,419L40,428Z" fill="#c4d0e6" stroke="#c4d0e6" stroke-width="1.51"/><path d="M-22,332L-2,419L60,319Z" fill="#c9d2e7" stroke="#c9d2e7" stroke-width="1.51"/><path d="M53,87L265,255L250,27Z" fill="#d8d7ea" stroke="#d8d7ea" stroke-width="1.51"/><path d="M1997,460L1864,588L1915,621Z" fill="#437ca7" stroke="#437ca7" stroke-width="1.51"/><path d="M1997,460L1808,469L1864,588Z" fill="#4c80ac" stroke="#4c80ac" stroke-width="1.51"/><path d="M1870,-101L1790,-187L1670,-96Z" fill="#8ea3c6" stroke="#8ea3c6" stroke-width="1.51"/><path d="M229,1136L299,926L179,956Z" fill="#859fc8" stroke="#859fc8" stroke-width="1.51"/><path d="M229,1136L330,1199L403,1036Z" fill="#7d95bb" stroke="#7d95bb" stroke-width="1.51"/><path d="M510,1187L487,1316L641,1272Z" fill="#6783a5" stroke="#6783a5" stroke-width="1.51"/><path d="M107,-87L53,87L250,27Z" fill="#e3e0ef" stroke="#e3e0ef" stroke-width="1.51"/><path d="M330,1199L487,1316L510,1187Z" fill="#6f88ab" stroke="#6f88ab" stroke-width="1.51"/><path d="M641,1272L487,1316L973,1263Z" fill="#597b9f" stroke="#597b9f" stroke-width="1.51"/><path d="M1740,1166L1697,971L1571,1158Z" fill="#04639c" stroke="#04639c" stroke-width="1.51"/><path d="M1832,1092L1825,994L1697,971Z" fill="#04649c" stroke="#04649c" stroke-width="1.51"/><path d="M1806,880L1956,885L1917,736Z" fill="#176ca0" stroke="#176ca0" stroke-width="1.51"/><path d="M2054,451L1997,460L2061,594Z" fill="#48789f" stroke="#48789f" stroke-width="1.51"/><path d="M37,155L-22,332L60,319Z" fill="#d2d6e9" stroke="#d2d6e9" stroke-width="1.51"/><path d="M-146,567L-31,651L37,568Z" fill="#afc6e0" stroke="#afc6e0" stroke-width="1.51"/><path d="M-101,159L-22,332L37,155Z" fill="#d9daeb" stroke="#d9daeb" stroke-width="1.51"/><path d="M42,1026L229,1136L179,956Z" fill="#88a0c6" stroke="#88a0c6" stroke-width="1.51"/><path d="M330,1199L352,1334L487,1316Z" fill="#7085a5" stroke="#7085a5" stroke-width="1.51"/><path d="M1697,-187L1790,-187L1565,-222Z" fill="#94aacd" stroke="#94aacd" stroke-width="1.51"/><path d="M1870,-101L1663,80L1842,117Z" fill="#849bc1" stroke="#849bc1" stroke-width="1.51"/><path d="M167,-188L107,-87L185,-83Z" fill="#eae5f1" stroke="#eae5f1" stroke-width="1.51"/><path d="M185,-83L107,-87L250,27Z" fill="#e5e1ef" stroke="#e5e1ef" stroke-width="1.51"/><path d="M49,711L-18,723L92,849Z" fill="#9bbad8" stroke="#9bbad8" stroke-width="1.51"/><path d="M92,849L42,1026L179,956Z" fill="#8ea7d0" stroke="#8ea7d0" stroke-width="1.51"/><path d="M-146,567L37,568L-2,419Z" fill="#b8cbe3" stroke="#b8cbe3" stroke-width="1.51"/><path d="M394,-235L167,-188L185,-83Z" fill="#e8e4f0" stroke="#e8e4f0" stroke-width="1.51"/><path d="M1405,1318L1531,1329L1459,1167Z" fill="#105e8f" stroke="#105e8f" stroke-width="1.51"/><path d="M352,1334L1531,1329L1405,1318Z" fill="#326a91" stroke="#326a91" stroke-width="1.51"/><path d="M-31,651L-18,723L49,711Z" fill="#a3bfdb" stroke="#a3bfdb" stroke-width="1.51"/><path d="M1928,-19L1870,-101L1842,117Z" fill="#849abc" stroke="#849abc" stroke-width="1.51"/><path d="M1692,1224L1740,1166L1571,1158Z" fill="#055d93" stroke="#055d93" stroke-width="1.51"/><path d="M1531,1329L1692,1224L1571,1158Z" fill="#045c90" stroke="#045c90" stroke-width="1.51"/><path d="M2009,183L1789,320L1975,354Z" fill="#6888b0" stroke="#6888b0" stroke-width="1.51"/><path d="M1980,38L1928,-19L1842,117Z" fill="#7f94b7" stroke="#7f94b7" stroke-width="1.51"/><path d="M2084,193L2009,183L1975,354Z" fill="#6984a7" stroke="#6984a7" stroke-width="1.51"/><path d="M1861,1263L1832,1092L1740,1166Z" fill="#04598c" stroke="#04598c" stroke-width="1.51"/><path d="M1740,1166L1832,1092L1697,971Z" fill="#046199" stroke="#046199" stroke-width="1.51"/><path d="M1942,975L1956,885L1806,880Z" fill="#0b659c" stroke="#0b659c" stroke-width="1.51"/><path d="M2061,594L1997,460L1915,621Z" fill="#4178a2" stroke="#4178a2" stroke-width="1.51"/><path d="M1942,975L1806,880L1825,994Z" fill="#05659e" stroke="#05659e" stroke-width="1.51"/><path d="M1997,460L2054,451L1975,354Z" fill="#547da4" stroke="#547da4" stroke-width="1.51"/><path d="M2061,594L1915,621L1917,736Z" fill="#3374a1" stroke="#3374a1" stroke-width="1.51"/><path d="M2009,183L1980,38L1842,117Z" fill="#7990b2" stroke="#7990b2" stroke-width="1.51"/><path d="M1928,-19L1992,-199L1870,-101Z" fill="#889bba" stroke="#889bba" stroke-width="1.51"/><path d="M-80,-61L-9,30L107,-87Z" fill="#ebe6f1" stroke="#ebe6f1" stroke-width="1.51"/><path d="M107,-87L-9,30L53,87Z" fill="#e7e3f0" stroke="#e7e3f0" stroke-width="1.51"/><path d="M53,87L-9,30L37,155Z" fill="#e2dfee" stroke="#e2dfee" stroke-width="1.51"/><path d="M2147,761L2061,594L1917,736Z" fill="#296c97" stroke="#296c97" stroke-width="1.51"/><path d="M487,1316L352,1334L1153,1296Z" fill="#5a7a9b" stroke="#5a7a9b" stroke-width="1.51"/><path d="M217,1256L352,1334L330,1199Z" fill="#768aa9" stroke="#768aa9" stroke-width="1.51"/><path d="M1956,885L2090,864L1917,736Z" fill="#166697" stroke="#166697" stroke-width="1.51"/><path d="M1832,1092L1942,975L1825,994Z" fill="#046097" stroke="#046097" stroke-width="1.51"/><path d="M229,1136L217,1256L330,1199Z" fill="#7c91b3" stroke="#7c91b3" stroke-width="1.51"/><path d="M-18,723L-48,836L92,849Z" fill="#9ab6d7" stroke="#9ab6d7" stroke-width="1.51"/><path d="M-131,722L-48,836L-18,723Z" fill="#9ebcdb" stroke="#9ebcdb" stroke-width="1.51"/><path d="M-131,722L-18,723L-31,651Z" fill="#a4c0dc" stroke="#a4c0dc" stroke-width="1.51"/><path d="M-146,567L-2,419L-225,480Z" fill="#becfe5" stroke="#becfe5" stroke-width="1.51"/><path d="M394,-235L102,-214L167,-188Z" fill="#ebe7f2" stroke="#ebe7f2" stroke-width="1.51"/><path d="M167,-188L102,-214L107,-87Z" fill="#ede8f2" stroke="#ede8f2" stroke-width="1.51"/><path d="M-48,836L42,1026L92,849Z" fill="#94add3" stroke="#94add3" stroke-width="1.51"/><path d="M34,1188L217,1256L229,1136Z" fill="#8195b6" stroke="#8195b6" stroke-width="1.51"/><path d="M2061,594L2102,377L2054,451Z" fill="#4b779c" stroke="#4b779c" stroke-width="1.51"/><path d="M2054,451L2102,377L1975,354Z" fill="#577ca2" stroke="#577ca2" stroke-width="1.51"/><path d="M2009,183L2081,82L1980,38Z" fill="#778bab" stroke="#778bab" stroke-width="1.51"/><path d="M-153,82L-101,159L-9,30Z" fill="#e5e2ef" stroke="#e5e2ef" stroke-width="1.51"/><path d="M-9,30L-101,159L37,155Z" fill="#e2dfed" stroke="#e2dfed" stroke-width="1.51"/><path d="M2102,377L2084,193L1975,354Z" fill="#6180a3" stroke="#6180a3" stroke-width="1.51"/><path d="M-150,289L-2,419L-22,332Z" fill="#ccd4e8" stroke="#ccd4e8" stroke-width="1.51"/><path d="M-101,159L-150,289L-22,332Z" fill="#d6daea" stroke="#d6daea" stroke-width="1.51"/><path d="M-146,567L-131,722L-31,651Z" fill="#acc5df" stroke="#acc5df" stroke-width="1.51"/><path d="M-48,836L-73,1007L42,1026Z" fill="#93abd1" stroke="#93abd1" stroke-width="1.51"/><path d="M2084,193L2081,82L2009,183Z" fill="#7286a6" stroke="#7286a6" stroke-width="1.51"/><path d="M1980,38L2065,-45L1928,-19Z" fill="#8093b1" stroke="#8093b1" stroke-width="1.51"/><path d="M1870,-101L1992,-199L1790,-187Z" fill="#8da0bf" stroke="#8da0bf" stroke-width="1.51"/><path d="M2102,377L2081,82L2084,193Z" fill="#6982a2" stroke="#6982a2" stroke-width="1.51"/><path d="M-21,-172L-80,-61L107,-87Z" fill="#f0eaf4" stroke="#f0eaf4" stroke-width="1.51"/><path d="M-101,159L-205,251L-150,289Z" fill="#dbdced" stroke="#dbdced" stroke-width="1.51"/><path d="M2052,1030L2090,864L1956,885Z" fill="#075d8f" stroke="#075d8f" stroke-width="1.51"/><path d="M2061,594L2147,761L2102,377Z" fill="#3b6f96" stroke="#3b6f96" stroke-width="1.51"/><path d="M2052,1030L1956,885L1942,975Z" fill="#045d92" stroke="#045d92" stroke-width="1.51"/><path d="M2052,1030L1942,975L2002,1145Z" fill="#045789" stroke="#045789" stroke-width="1.51"/><path d="M102,-214L-21,-172L107,-87Z" fill="#f0eaf4" stroke="#f0eaf4" stroke-width="1.51"/><path d="M2081,82L2065,-45L1980,38Z" fill="#7c8eac" stroke="#7c8eac" stroke-width="1.51"/><path d="M-80,-61L-153,82L-9,30Z" fill="#eae6f1" stroke="#eae6f1" stroke-width="1.51"/><path d="M-150,289L-225,480L-2,419Z" fill="#c8d3e8" stroke="#c8d3e8" stroke-width="1.51"/><path d="M1692,1224L1861,1263L1740,1166Z" fill="#045789" stroke="#045789" stroke-width="1.51"/><path d="M1531,1329L1861,1263L1692,1224Z" fill="#045586" stroke="#045586" stroke-width="1.51"/><path d="M42,1026L34,1188L229,1136Z" fill="#889dc0" stroke="#889dc0" stroke-width="1.51"/><path d="M-218,899L-73,1007L-48,836Z" fill="#97b0d5" stroke="#97b0d5" stroke-width="1.51"/><path d="M2065,-45L1992,-199L1928,-19Z" fill="#8596b3" stroke="#8596b3" stroke-width="1.51"/><path d="M1790,-187L1992,-199L1565,-222Z" fill="#92a6c7" stroke="#92a6c7" stroke-width="1.51"/><path d="M1565,-222L1992,-199L1278,-250Z" fill="#97aed1" stroke="#97aed1" stroke-width="1.51"/><path d="M2090,864L2147,761L1917,736Z" fill="#1a6693" stroke="#1a6693" stroke-width="1.51"/><path d="M2102,377L2147,761L2081,82Z" fill="#53779b" stroke="#53779b" stroke-width="1.51"/><path d="M-82,1113L34,1188L42,1026Z" fill="#8ca1c3" stroke="#8ca1c3" stroke-width="1.51"/><path d="M217,1256L82,1288L352,1334Z" fill="#788aa6" stroke="#788aa6" stroke-width="1.51"/><path d="M-153,82L-205,251L-101,159Z" fill="#e1e0ef" stroke="#e1e0ef" stroke-width="1.51"/><path d="M-146,567L-225,480L-131,722Z" fill="#b4cae2" stroke="#b4cae2" stroke-width="1.51"/><path d="M-196,1094L-82,1113L-73,1007Z" fill="#91a6c8" stroke="#91a6c8" stroke-width="1.51"/><path d="M-205,251L-225,480L-150,289Z" fill="#d1d8ea" stroke="#d1d8ea" stroke-width="1.51"/><path d="M2090,864L2108,1179L2147,761Z" fill="#055788" stroke="#055788" stroke-width="1.51"/><path d="M2002,1145L1942,975L1832,1092Z" fill="#045a8e" stroke="#045a8e" stroke-width="1.51"/><path d="M1861,1263L2002,1145L1832,1092Z" fill="#045687" stroke="#045687" stroke-width="1.51"/><path d="M-22,1299L82,1288L34,1188Z" fill="#8293af" stroke="#8293af" stroke-width="1.51"/><path d="M34,1188L82,1288L217,1256Z" fill="#8092af" stroke="#8092af" stroke-width="1.51"/><path d="M2065,-45L2063,-183L1992,-199Z" fill="#8595b0" stroke="#8595b0" stroke-width="1.51"/><path d="M2081,82L2063,-183L2065,-45Z" fill="#8090ab" stroke="#8090ab" stroke-width="1.51"/><path d="M2147,761L2063,-183L2081,82Z" fill="#6981a0" stroke="#6981a0" stroke-width="1.51"/><path d="M-73,1007L-82,1113L42,1026Z" fill="#90a5c9" stroke="#90a5c9" stroke-width="1.51"/><path d="M-218,899L-48,836L-131,722Z" fill="#9eb9d9" stroke="#9eb9d9" stroke-width="1.51"/><path d="M-225,480L-218,899L-131,722Z" fill="#a8c3de" stroke="#a8c3de" stroke-width="1.51"/><path d="M-209,1301L-22,1299L-82,1113Z" fill="#8898b4" stroke="#8898b4" stroke-width="1.51"/><path d="M-82,1113L-22,1299L34,1188Z" fill="#889ab8" stroke="#889ab8" stroke-width="1.51"/><path d="M82,1288L-22,1299L352,1334Z" fill="#7b8ba6" stroke="#7b8ba6" stroke-width="1.51"/><path d="M-80,-61L-236,-121L-153,82Z" fill="#f0ebf4" stroke="#f0ebf4" stroke-width="1.51"/><path d="M-153,82L-236,-121L-205,251Z" fill="#eae6f1" stroke="#eae6f1" stroke-width="1.51"/><path d="M-205,251L-236,-121L-225,480Z" fill="#e0e0ee" stroke="#e0e0ee" stroke-width="1.51"/><path d="M-21,-172L-181,-178L-80,-61Z" fill="#f4eef5" stroke="#f4eef5" stroke-width="1.51"/><path d="M102,-214L-181,-178L-21,-172Z" fill="#f5eef6" stroke="#f5eef6" stroke-width="1.51"/><path d="M-218,899L-211,1030L-73,1007Z" fill="#96add1" stroke="#96add1" stroke-width="1.51"/><path d="M1861,1263L2008,1299L2002,1145Z" fill="#034d79" stroke="#034d79" stroke-width="1.51"/><path d="M2002,1145L2108,1179L2052,1030Z" fill="#04517f" stroke="#04517f" stroke-width="1.51"/><path d="M2052,1030L2108,1179L2090,864Z" fill="#045484" stroke="#045484" stroke-width="1.51"/><path d="M1531,1329L2008,1299L1861,1263Z" fill="#034f7d" stroke="#034f7d" stroke-width="1.51"/><path d="M2008,1299L2108,1179L2002,1145Z" fill="#034a75" stroke="#034a75" stroke-width="1.51"/><path d="M-211,1030L-196,1094L-73,1007Z" fill="#93a8cb" stroke="#93a8cb" stroke-width="1.51"/><path d="M-181,-178L-236,-121L-80,-61Z" fill="#f5eff6" stroke="#f5eff6" stroke-width="1.51"/><path d="M-225,480L-236,-121L-218,899Z" fill="#c9d5e8" stroke="#c9d5e8" stroke-width="1.51"/><path d="M2008,1299L2117,1315L2108,1179Z" fill="#03446a" stroke="#03446a" stroke-width="1.51"/><path d="M2108,1179L2117,1315L2147,761Z" fill="#034e7b" stroke="#034e7b" stroke-width="1.51"/><path d="M1531,1329L2117,1315L2008,1299Z" fill="#034a75" stroke="#034a75" stroke-width="1.51"/><path d="M-211,1030L-209,1301L-196,1094Z" fill="#91a4c3" stroke="#91a4c3" stroke-width="1.51"/><path d="M-196,1094L-209,1301L-82,1113Z" fill="#8ea0be" stroke="#8ea0be" stroke-width="1.51"/><path d="M-22,1299L-209,1301L352,1334Z" fill="#7f8ea7" stroke="#7f8ea7" stroke-width="1.51"/><path d="M-218,899L-209,1301L-211,1030Z" fill="#94a8c9" stroke="#94a8c9" stroke-width="1.51"/></svg>