<svg xmlns="http://www.w3.org/2000/svg" width="1920" height="1080"><path d="M1022,497L989,387L926,465Z" fill="#a4a1cc" stroke="#a4a1cc" stroke-width="1.51"/><path d="M1022,497L1126,488L989,387Z" fill="#a09dca" stroke="#a09dca" stroke-width="1.51"/><path d="M989,387L919,303L926,465Z" fill="#aba8d0" stroke="#aba8d0" stroke-width="1.51"/><path d="M1001,210L919,303L989,387Z" fill="#afadd3" stroke="#afadd3" stroke-width="1.51"/><path d="M866,639L1060,607L1022,497Z" fill="#9a96c6" stroke="#9a96c6" stroke-width="1.51"/><path d="M1022,497L1060,607L1126,488Z" fill="#9995c6" stroke="#9995c6" stroke-width="1.51"/><path d="M1126,488L1168,334L989,387Z" fill="#a29fcc" stroke="#a29fcc" stroke-width="1.51"/><path d="M926,465L866,639L1022,497Z" fill="#a09cc9" stroke="#a09cc9" stroke-width="1.51"/><path d="M745,603L866,639L926,465Z" fill="#a29ecb" stroke="#a29ecb" stroke-width="1.51"/><path d="M919,303L788,328L926,465Z" fill="#afadd3" stroke="#afadd3" stroke-width="1.51"/><path d="M1168,334L1001,210L989,387Z" fill="#aba9d1" stroke="#aba9d1" stroke-width="1.51"/><path d="M919,303L875,205L788,328Z" fill="#b7b5d8" stroke="#b7b5d8" stroke-width="1.51"/><path d="M1001,210L875,205L919,303Z" fill="#b6b4d6" stroke="#b6b4d6" stroke-width="1.51"/><path d="M788,328L703,467L926,465Z" fill="#aeadd3" stroke="#aeadd3" stroke-width="1.51"/><path d="M703,467L745,603L926,465Z" fill="#a9a6cf" stroke="#a9a6cf" stroke-width="1.51"/><path d="M1060,607L1205,643L1126,488Z" fill="#938fc3" stroke="#938fc3" stroke-width="1.51"/><path d="M1126,488L1278,499L1168,334Z" fill="#9a97c8" stroke="#9a97c8" stroke-width="1.51"/><path d="M1170,736L1205,643L1060,607Z" fill="#8c88bf" stroke="#8c88bf" stroke-width="1.51"/><path d="M1205,643L1278,499L1126,488Z" fill="#928ec3" stroke="#928ec3" stroke-width="1.51"/><path d="M866,639L1058,764L1060,607Z" fill="#938fc3" stroke="#938fc3" stroke-width="1.51"/><path d="M864,770L1058,764L866,639Z" fill="#928ec3" stroke="#928ec3" stroke-width="1.51"/><path d="M703,467L654,471L745,603Z" fill="#adabd2" stroke="#adabd2" stroke-width="1.51"/><path d="M658,286L654,471L703,467Z" fill="#b6b6d8" stroke="#b6b6d8" stroke-width="1.51"/><path d="M658,286L703,467L788,328Z" fill="#b7b7d9" stroke="#b7b7d9" stroke-width="1.51"/><path d="M875,205L748,205L788,328Z" fill="#bcbbda" stroke="#bcbbda" stroke-width="1.51"/><path d="M1427,558L1396,428L1278,499Z" fill="#8f88bf" stroke="#8f88bf" stroke-width="1.51"/><path d="M1058,764L1170,736L1060,607Z" fill="#8c88c0" stroke="#8c88c0" stroke-width="1.51"/><path d="M1168,334L1170,159L1001,210Z" fill="#adabd2" stroke="#adabd2" stroke-width="1.51"/><path d="M1001,210L1034,77L875,205Z" fill="#b9b7d8" stroke="#b9b7d8" stroke-width="1.51"/><path d="M875,205L777,53L748,205Z" fill="#c2c1de" stroke="#c2c1de" stroke-width="1.51"/><path d="M1336,183L1170,159L1168,334Z" fill="#a9a6d0" stroke="#a9a6d0" stroke-width="1.51"/><path d="M776,763L864,770L866,639Z" fill="#9793c6" stroke="#9793c6" stroke-width="1.51"/><path d="M748,205L658,286L788,328Z" fill="#bdbddc" stroke="#bdbddc" stroke-width="1.51"/><path d="M1278,499L1332,323L1168,334Z" fill="#9b99c9" stroke="#9b99c9" stroke-width="1.51"/><path d="M1170,159L1034,77L1001,210Z" fill="#b6b3d6" stroke="#b6b3d6" stroke-width="1.51"/><path d="M625,618L776,763L745,603Z" fill="#a19fcc" stroke="#a19fcc" stroke-width="1.51"/><path d="M745,603L776,763L866,639Z" fill="#9d9ac9" stroke="#9d9ac9" stroke-width="1.51"/><path d="M654,471L625,618L745,603Z" fill="#aaa8d0" stroke="#aaa8d0" stroke-width="1.51"/><path d="M454,426L625,618L654,471Z" fill="#b3b2d5" stroke="#b3b2d5" stroke-width="1.51"/><path d="M1278,499L1396,428L1332,323Z" fill="#9690c4" stroke="#9690c4" stroke-width="1.51"/><path d="M1342,662L1278,499L1205,643Z" fill="#8a86bf" stroke="#8a86bf" stroke-width="1.51"/><path d="M1170,736L1342,662L1205,643Z" fill="#8682bd" stroke="#8682bd" stroke-width="1.51"/><path d="M776,763L847,844L864,770Z" fill="#938dc3" stroke="#938dc3" stroke-width="1.51"/><path d="M864,770L1006,880L1058,764Z" fill="#8b83bd" stroke="#8b83bd" stroke-width="1.51"/><path d="M1058,764L1144,845L1170,736Z" fill="#857fbb" stroke="#857fbb" stroke-width="1.51"/><path d="M813,886L847,844L776,763Z" fill="#9289c1" stroke="#9289c1" stroke-width="1.51"/><path d="M1170,159L1157,14L1034,77Z" fill="#b7b4d7" stroke="#b7b4d7" stroke-width="1.51"/><path d="M1336,183L1243,115L1170,159Z" fill="#adaad3" stroke="#adaad3" stroke-width="1.51"/><path d="M1336,183L1168,334L1332,323Z" fill="#a29fcd" stroke="#a29fcd" stroke-width="1.51"/><path d="M1006,880L1144,845L1058,764Z" fill="#857cba" stroke="#857cba" stroke-width="1.51"/><path d="M1170,736L1340,785L1342,662Z" fill="#817cb9" stroke="#817cb9" stroke-width="1.51"/><path d="M1034,77L838,43L875,205Z" fill="#bfbedb" stroke="#bfbedb" stroke-width="1.51"/><path d="M748,205L570,180L658,286Z" fill="#c4c5e0" stroke="#c4c5e0" stroke-width="1.51"/><path d="M847,844L1006,880L864,770Z" fill="#8d84be" stroke="#8d84be" stroke-width="1.51"/><path d="M1417,242L1336,183L1332,323Z" fill="#a19bca" stroke="#a19bca" stroke-width="1.51"/><path d="M838,43L777,53L875,205Z" fill="#c4c3df" stroke="#c4c3df" stroke-width="1.51"/><path d="M1342,662L1427,558L1278,499Z" fill="#8a82bd" stroke="#8a82bd" stroke-width="1.51"/><path d="M1034,77L971,-13L838,43Z" fill="#c2bedc" stroke="#c2bedc" stroke-width="1.51"/><path d="M838,43L702,-102L777,53Z" fill="#cccbe3" stroke="#cccbe3" stroke-width="1.51"/><path d="M1157,14L971,-13L1034,77Z" fill="#bdbada" stroke="#bdbada" stroke-width="1.51"/><path d="M1243,115L1157,14L1170,159Z" fill="#b3b0d5" stroke="#b3b0d5" stroke-width="1.51"/><path d="M1244,-120L1157,14L1243,115Z" fill="#b7b3d7" stroke="#b7b3d7" stroke-width="1.51"/><path d="M847,844L900,1012L1006,880Z" fill="#887bb9" stroke="#887bb9" stroke-width="1.51"/><path d="M674,866L813,886L776,763Z" fill="#948cc3" stroke="#948cc3" stroke-width="1.51"/><path d="M1144,845L1267,828L1170,736Z" fill="#8179b8" stroke="#8179b8" stroke-width="1.51"/><path d="M1342,662L1469,729L1427,558Z" fill="#8278b8" stroke="#8278b8" stroke-width="1.51"/><path d="M1260,1054L1267,828L1144,845Z" fill="#796cb2" stroke="#796cb2" stroke-width="1.51"/><path d="M1482,377L1417,242L1332,323Z" fill="#9b92c7" stroke="#9b92c7" stroke-width="1.51"/><path d="M1336,183L1374,93L1243,115Z" fill="#aca7d1" stroke="#aca7d1" stroke-width="1.51"/><path d="M1482,377L1332,323L1396,428Z" fill="#968ec4" stroke="#968ec4" stroke-width="1.51"/><path d="M1267,828L1340,785L1170,736Z" fill="#7e78b7" stroke="#7e78b7" stroke-width="1.51"/><path d="M658,286L454,426L654,471Z" fill="#bbbbda" stroke="#bbbbda" stroke-width="1.51"/><path d="M595,114L570,180L748,205Z" fill="#cacae3" stroke="#cacae3" stroke-width="1.51"/><path d="M1566,477L1482,377L1396,428Z" fill="#9084be" stroke="#9084be" stroke-width="1.51"/><path d="M526,87L595,114L644,-59Z" fill="#d3d3e7" stroke="#d3d3e7" stroke-width="1.51"/><path d="M777,53L595,114L748,205Z" fill="#c9c9e2" stroke="#c9c9e2" stroke-width="1.51"/><path d="M573,796L674,866L776,763Z" fill="#9a94c7" stroke="#9a94c7" stroke-width="1.51"/><path d="M1417,242L1374,93L1336,183Z" fill="#a79fcd" stroke="#a79fcd" stroke-width="1.51"/><path d="M1533,220L1374,93L1417,242Z" fill="#a399ca" stroke="#a399ca" stroke-width="1.51"/><path d="M442,358L658,286L458,211Z" fill="#c7c7e1" stroke="#c7c7e1" stroke-width="1.51"/><path d="M442,358L454,426L658,286Z" fill="#c1c2de" stroke="#c1c2de" stroke-width="1.51"/><path d="M625,618L573,796L776,763Z" fill="#9f9dcc" stroke="#9f9dcc" stroke-width="1.51"/><path d="M454,426L490,650L625,618Z" fill="#b1b0d4" stroke="#b1b0d4" stroke-width="1.51"/><path d="M490,650L573,796L625,618Z" fill="#a7a5cf" stroke="#a7a5cf" stroke-width="1.51"/><path d="M346,706L484,763L490,650Z" fill="#aca9d1" stroke="#aca9d1" stroke-width="1.51"/><path d="M458,211L658,286L570,180Z" fill="#c9c9e3" stroke="#c9c9e3" stroke-width="1.51"/><path d="M971,-13L882,-101L838,43Z" fill="#c7c4df" stroke="#c7c4df" stroke-width="1.51"/><path d="M882,-162L882,-101L1049,-224Z" fill="#cac8e1" stroke="#cac8e1" stroke-width="1.51"/><path d="M1137,-96L971,-13L1157,14Z" fill="#bebbda" stroke="#bebbda" stroke-width="1.51"/><path d="M1427,558L1566,477L1396,428Z" fill="#8c81bc" stroke="#8c81bc" stroke-width="1.51"/><path d="M1340,785L1469,729L1342,662Z" fill="#7d75b6" stroke="#7d75b6" stroke-width="1.51"/><path d="M1521,716L1469,729L1465,836Z" fill="#776bb0" stroke="#776bb0" stroke-width="1.51"/><path d="M1244,-120L1137,-96L1157,14Z" fill="#bcb8d9" stroke="#bcb8d9" stroke-width="1.51"/><path d="M1006,880L1126,1044L1144,845Z" fill="#7f71b4" stroke="#7f71b4" stroke-width="1.51"/><path d="M1465,836L1469,729L1340,785Z" fill="#796cb2" stroke="#796cb2" stroke-width="1.51"/><path d="M813,886L900,1012L847,844Z" fill="#8c7ebb" stroke="#8c7ebb" stroke-width="1.51"/><path d="M756,1029L900,1012L813,886Z" fill="#8a7ab9" stroke="#8a7ab9" stroke-width="1.51"/><path d="M1469,729L1531,617L1427,558Z" fill="#8175b6" stroke="#8175b6" stroke-width="1.51"/><path d="M526,87L458,211L570,180Z" fill="#d1d0e6" stroke="#d1d0e6" stroke-width="1.51"/><path d="M526,87L570,180L595,114Z" fill="#d0d0e6" stroke="#d0d0e6" stroke-width="1.51"/><path d="M1482,377L1533,220L1417,242Z" fill="#9c90c5" stroke="#9c90c5" stroke-width="1.51"/><path d="M1531,617L1566,477L1427,558Z" fill="#8578b7" stroke="#8578b7" stroke-width="1.51"/><path d="M484,763L544,831L573,796Z" fill="#a19ccb" stroke="#a19ccb" stroke-width="1.51"/><path d="M573,796L544,831L674,866Z" fill="#9d95c8" stroke="#9d95c8" stroke-width="1.51"/><path d="M674,866L756,1029L813,886Z" fill="#9083be" stroke="#9083be" stroke-width="1.51"/><path d="M644,-59L595,114L777,53Z" fill="#cfcfe5" stroke="#cfcfe5" stroke-width="1.51"/><path d="M490,650L484,763L573,796Z" fill="#a6a4cf" stroke="#a6a4cf" stroke-width="1.51"/><path d="M375,492L490,650L454,426Z" fill="#b9b7d8" stroke="#b9b7d8" stroke-width="1.51"/><path d="M1604,299L1533,220L1482,377Z" fill="#988bc2" stroke="#988bc2" stroke-width="1.51"/><path d="M1531,617L1667,471L1566,477Z" fill="#8575b6" stroke="#8575b6" stroke-width="1.51"/><path d="M1469,729L1521,716L1531,617Z" fill="#7b6fb2" stroke="#7b6fb2" stroke-width="1.51"/><path d="M1465,836L1340,785L1391,988Z" fill="#7465ad" stroke="#7465ad" stroke-width="1.51"/><path d="M702,-102L644,-59L777,53Z" fill="#d1d0e6" stroke="#d1d0e6" stroke-width="1.51"/><path d="M353,369L375,492L454,426Z" fill="#c2c1de" stroke="#c2c1de" stroke-width="1.51"/><path d="M353,369L454,426L442,358Z" fill="#c4c4df" stroke="#c4c4df" stroke-width="1.51"/><path d="M1059,1058L1126,1044L1006,880Z" fill="#7d6bb1" stroke="#7d6bb1" stroke-width="1.51"/><path d="M900,1012L1059,1058L1006,880Z" fill="#8170b3" stroke="#8170b3" stroke-width="1.51"/><path d="M1391,988L1340,785L1267,828Z" fill="#776ab0" stroke="#776ab0" stroke-width="1.51"/><path d="M882,-101L702,-102L838,43Z" fill="#cdcce3" stroke="#cdcce3" stroke-width="1.51"/><path d="M882,-101L759,-166L702,-102Z" fill="#d1cfe5" stroke="#d1cfe5" stroke-width="1.51"/><path d="M1049,-224L882,-101L971,-13Z" fill="#c7c4df" stroke="#c7c4df" stroke-width="1.51"/><path d="M619,1020L756,1029L674,866Z" fill="#9181bd" stroke="#9181bd" stroke-width="1.51"/><path d="M900,1012L1047,1111L1059,1058Z" fill="#7d67af" stroke="#7d67af" stroke-width="1.51"/><path d="M1137,-96L1049,-224L971,-13Z" fill="#c3bfdd" stroke="#c3bfdd" stroke-width="1.51"/><path d="M1374,93L1244,-120L1243,115Z" fill="#b2add4" stroke="#b2add4" stroke-width="1.51"/><path d="M1444,-61L1244,-120L1374,93Z" fill="#b3abd3" stroke="#b3abd3" stroke-width="1.51"/><path d="M1594,65L1444,-61L1374,93Z" fill="#ab9fcd" stroke="#ab9fcd" stroke-width="1.51"/><path d="M1566,477L1604,299L1482,377Z" fill="#9183be" stroke="#9183be" stroke-width="1.51"/><path d="M1667,471L1604,299L1566,477Z" fill="#8c7cba" stroke="#8c7cba" stroke-width="1.51"/><path d="M328,248L353,369L442,358Z" fill="#cbcbe4" stroke="#cbcbe4" stroke-width="1.51"/><path d="M328,248L442,358L458,211Z" fill="#cecde5" stroke="#cecde5" stroke-width="1.51"/><path d="M575,-150L510,-31L644,-59Z" fill="#dad9eb" stroke="#dad9eb" stroke-width="1.51"/><path d="M882,-162L759,-166L882,-101Z" fill="#cfcce4" stroke="#cfcce4" stroke-width="1.51"/><path d="M1126,1044L1260,1054L1144,845Z" fill="#7867af" stroke="#7867af" stroke-width="1.51"/><path d="M1208,1122L1260,1054L1126,1044Z" fill="#725da9" stroke="#725da9" stroke-width="1.51"/><path d="M1059,1058L1047,1111L1126,1044Z" fill="#7863ad" stroke="#7863ad" stroke-width="1.51"/><path d="M873,1107L1047,1111L900,1012Z" fill="#7f69b0" stroke="#7f69b0" stroke-width="1.51"/><path d="M756,1029L873,1107L900,1012Z" fill="#8671b4" stroke="#8671b4" stroke-width="1.51"/><path d="M372,81L328,248L458,211Z" fill="#d6d5e9" stroke="#d6d5e9" stroke-width="1.51"/><path d="M644,-59L510,-31L526,87Z" fill="#d7d6ea" stroke="#d7d6ea" stroke-width="1.51"/><path d="M575,-150L644,-59L702,-102Z" fill="#d8d7ea" stroke="#d8d7ea" stroke-width="1.51"/><path d="M1208,-203L1049,-224L1137,-96Z" fill="#c1bedc" stroke="#c1bedc" stroke-width="1.51"/><path d="M882,-162L1049,-224L759,-166Z" fill="#cdcae3" stroke="#cdcae3" stroke-width="1.51"/><path d="M1260,1054L1391,988L1267,828Z" fill="#7362ac" stroke="#7362ac" stroke-width="1.51"/><path d="M756,1029L762,1173L873,1107Z" fill="#856eb3" stroke="#856eb3" stroke-width="1.51"/><path d="M502,966L619,1020L674,866Z" fill="#9688c0" stroke="#9688c0" stroke-width="1.51"/><path d="M502,966L674,866L544,831Z" fill="#9b90c5" stroke="#9b90c5" stroke-width="1.51"/><path d="M1754,634L1667,471L1531,617Z" fill="#7f6db2" stroke="#7f6db2" stroke-width="1.51"/><path d="M1657,763L1531,617L1521,716Z" fill="#7869b0" stroke="#7869b0" stroke-width="1.51"/><path d="M1657,763L1521,716L1606,855Z" fill="#7261ab" stroke="#7261ab" stroke-width="1.51"/><path d="M1594,65L1374,93L1533,220Z" fill="#a698ca" stroke="#a698ca" stroke-width="1.51"/><path d="M1244,-120L1208,-203L1137,-96Z" fill="#bdb9da" stroke="#bdb9da" stroke-width="1.51"/><path d="M301,554L490,650L375,492Z" fill="#b8b6d7" stroke="#b8b6d7" stroke-width="1.51"/><path d="M372,81L458,211L526,87Z" fill="#d5d6e9" stroke="#d5d6e9" stroke-width="1.51"/><path d="M1278,-250L1208,-203L1244,-120Z" fill="#bdb9da" stroke="#bdb9da" stroke-width="1.51"/><path d="M484,763L502,966L544,831Z" fill="#a097c8" stroke="#a097c8" stroke-width="1.51"/><path d="M301,554L346,706L490,650Z" fill="#b4b1d5" stroke="#b4b1d5" stroke-width="1.51"/><path d="M301,554L375,492L222,432Z" fill="#c1bfdd" stroke="#c1bfdd" stroke-width="1.51"/><path d="M222,432L375,492L353,369Z" fill="#c5c4df" stroke="#c5c4df" stroke-width="1.51"/><path d="M403,1036L502,966L299,926Z" fill="#9f8ec5" stroke="#9f8ec5" stroke-width="1.51"/><path d="M1260,1054L1331,1093L1391,988Z" fill="#6e58a7" stroke="#6e58a7" stroke-width="1.51"/><path d="M1047,1111L1208,1122L1126,1044Z" fill="#755faa" stroke="#755faa" stroke-width="1.51"/><path d="M1153,1296L1208,1122L1047,1111Z" fill="#7156a6" stroke="#7156a6" stroke-width="1.51"/><path d="M510,-31L372,81L526,87Z" fill="#d9d9ea" stroke="#d9d9ea" stroke-width="1.51"/><path d="M1663,80L1594,65L1533,220Z" fill="#a392c6" stroke="#a392c6" stroke-width="1.51"/><path d="M1728,255L1533,220L1604,299Z" fill="#9887c1" stroke="#9887c1" stroke-width="1.51"/><path d="M1667,471L1698,329L1604,299Z" fill="#8f7dbb" stroke="#8f7dbb" stroke-width="1.51"/><path d="M759,-166L575,-150L702,-102Z" fill="#d7d6e9" stroke="#d7d6e9" stroke-width="1.51"/><path d="M510,-31L355,-42L372,81Z" fill="#dedded" stroke="#dedded" stroke-width="1.51"/><path d="M451,-211L575,-150L759,-166Z" fill="#dcdcec" stroke="#dcdcec" stroke-width="1.51"/><path d="M328,248L264,348L353,369Z" fill="#cdcee5" stroke="#cdcee5" stroke-width="1.51"/><path d="M265,255L264,348L328,248Z" fill="#d1d1e7" stroke="#d1d1e7" stroke-width="1.51"/><path d="M1208,1122L1331,1093L1260,1054Z" fill="#6e58a7" stroke="#6e58a7" stroke-width="1.51"/><path d="M1606,855L1465,836L1523,1047Z" fill="#6e57a6" stroke="#6e57a6" stroke-width="1.51"/><path d="M1606,855L1521,716L1465,836Z" fill="#7463ad" stroke="#7463ad" stroke-width="1.51"/><path d="M1789,320L1728,255L1698,329Z" fill="#917cbc" stroke="#917cbc" stroke-width="1.51"/><path d="M1523,1047L1465,836L1391,988Z" fill="#6e57a7" stroke="#6e57a7" stroke-width="1.51"/><path d="M372,81L265,255L328,248Z" fill="#d6d7ea" stroke="#d6d7ea" stroke-width="1.51"/><path d="M1467,-174L1244,-120L1444,-61Z" fill="#b5acd4" stroke="#b5acd4" stroke-width="1.51"/><path d="M1467,-174L1278,-250L1244,-120Z" fill="#b9b2d7" stroke="#b9b2d7" stroke-width="1.51"/><path d="M1208,-203L1278,-250L1049,-224Z" fill="#c0bddc" stroke="#c0bddc" stroke-width="1.51"/><path d="M643,1126L762,1173L756,1029Z" fill="#8972b6" stroke="#8972b6" stroke-width="1.51"/><path d="M873,1107L973,1263L1047,1111Z" fill="#7a60ab" stroke="#7a60ab" stroke-width="1.51"/><path d="M643,1126L756,1029L619,1020Z" fill="#8e79ba" stroke="#8e79ba" stroke-width="1.51"/><path d="M510,1187L643,1126L619,1020Z" fill="#8f78b9" stroke="#8f78b9" stroke-width="1.51"/><path d="M60,319L222,432L264,348Z" fill="#cfcee5" stroke="#cfcee5" stroke-width="1.51"/><path d="M264,348L222,432L353,369Z" fill="#cacae3" stroke="#cacae3" stroke-width="1.51"/><path d="M301,554L255,690L346,706Z" fill="#b6b3d6" stroke="#b6b3d6" stroke-width="1.51"/><path d="M1606,855L1650,823L1657,763Z" fill="#6f5aa8" stroke="#6f5aa8" stroke-width="1.51"/><path d="M1697,971L1650,823L1606,855Z" fill="#6b52a3" stroke="#6b52a3" stroke-width="1.51"/><path d="M1594,65L1532,-87L1444,-61Z" fill="#ad9dcd" stroke="#ad9dcd" stroke-width="1.51"/><path d="M1594,65L1670,-96L1532,-87Z" fill="#ab99cb" stroke="#ab99cb" stroke-width="1.51"/><path d="M1698,329L1728,255L1604,299Z" fill="#9481be" stroke="#9481be" stroke-width="1.51"/><path d="M1789,320L1698,329L1808,469Z" fill="#8b75b8" stroke="#8b75b8" stroke-width="1.51"/><path d="M1754,634L1531,617L1657,763Z" fill="#7866af" stroke="#7866af" stroke-width="1.51"/><path d="M172,603L255,690L301,554Z" fill="#bab7d9" stroke="#bab7d9" stroke-width="1.51"/><path d="M299,926L502,966L484,763Z" fill="#a397c9" stroke="#a397c9" stroke-width="1.51"/><path d="M502,966L510,1187L619,1020Z" fill="#947fbd" stroke="#947fbd" stroke-width="1.51"/><path d="M1728,255L1663,80L1533,220Z" fill="#9d8bc3" stroke="#9d8bc3" stroke-width="1.51"/><path d="M1532,-87L1467,-174L1444,-61Z" fill="#b1a4d0" stroke="#b1a4d0" stroke-width="1.51"/><path d="M1565,-222L1467,-174L1532,-87Z" fill="#b1a3cf" stroke="#b1a3cf" stroke-width="1.51"/><path d="M790,1232L850,1225L762,1173Z" fill="#8065ae" stroke="#8065ae" stroke-width="1.51"/><path d="M762,1173L850,1225L873,1107Z" fill="#8166af" stroke="#8166af" stroke-width="1.51"/><path d="M1328,1283L1459,1167L1331,1093Z" fill="#65489f" stroke="#65489f" stroke-width="1.51"/><path d="M1789,757L1754,634L1657,763Z" fill="#725daa" stroke="#725daa" stroke-width="1.51"/><path d="M372,81L250,27L265,255Z" fill="#dddced" stroke="#dddced" stroke-width="1.51"/><path d="M451,-211L355,-42L510,-31Z" fill="#e1e0ee" stroke="#e1e0ee" stroke-width="1.51"/><path d="M1459,1167L1523,1047L1391,988Z" fill="#684da1" stroke="#684da1" stroke-width="1.51"/><path d="M1459,1167L1391,988L1331,1093Z" fill="#6a50a2" stroke="#6a50a2" stroke-width="1.51"/><path d="M641,1272L790,1232L762,1173Z" fill="#8367af" stroke="#8367af" stroke-width="1.51"/><path d="M1808,469L1698,329L1667,471Z" fill="#8874b6" stroke="#8874b6" stroke-width="1.51"/><path d="M1728,255L1781,186L1663,80Z" fill="#9b86c0" stroke="#9b86c0" stroke-width="1.51"/><path d="M790,1232L973,1263L850,1225Z" fill="#7b5faa" stroke="#7b5faa" stroke-width="1.51"/><path d="M850,1225L973,1263L873,1107Z" fill="#7c60ab" stroke="#7c60ab" stroke-width="1.51"/><path d="M1754,634L1808,469L1667,471Z" fill="#806ab1" stroke="#806ab1" stroke-width="1.51"/><path d="M299,926L484,763L346,706Z" fill="#a9a3cf" stroke="#a9a3cf" stroke-width="1.51"/><path d="M643,1126L641,1272L762,1173Z" fill="#876db3" stroke="#876db3" stroke-width="1.51"/><path d="M248,899L299,926L346,706Z" fill="#aaa1ce" stroke="#aaa1ce" stroke-width="1.51"/><path d="M222,432L172,603L301,554Z" fill="#c1bedc" stroke="#c1bedc" stroke-width="1.51"/><path d="M40,428L172,603L222,432Z" fill="#c7c4df" stroke="#c7c4df" stroke-width="1.51"/><path d="M248,899L346,706L255,690Z" fill="#afaad2" stroke="#afaad2" stroke-width="1.51"/><path d="M1789,320L1781,186L1728,255Z" fill="#947ebc" stroke="#947ebc" stroke-width="1.51"/><path d="M1663,80L1670,-96L1594,65Z" fill="#a793c8" stroke="#a793c8" stroke-width="1.51"/><path d="M1842,117L1781,186L2009,183Z" fill="#977cbc" stroke="#977cbc" stroke-width="1.51"/><path d="M355,-42L250,27L372,81Z" fill="#e1e0ee" stroke="#e1e0ee" stroke-width="1.51"/><path d="M265,255L60,319L264,348Z" fill="#d3d2e7" stroke="#d3d2e7" stroke-width="1.51"/><path d="M575,-150L451,-211L510,-31Z" fill="#dedeed" stroke="#dedeed" stroke-width="1.51"/><path d="M355,-42L185,-83L250,27Z" fill="#e6e5f1" stroke="#e6e5f1" stroke-width="1.51"/><path d="M394,-235L451,-211L759,-166Z" fill="#e0e0ee" stroke="#e0e0ee" stroke-width="1.51"/><path d="M394,-235L759,-166L1049,-224Z" fill="#d6d5e9" stroke="#d6d5e9" stroke-width="1.51"/><path d="M1806,880L1789,757L1650,823Z" fill="#6b52a4" stroke="#6b52a4" stroke-width="1.51"/><path d="M1328,1283L1331,1093L1208,1122Z" fill="#6950a2" stroke="#6950a2" stroke-width="1.51"/><path d="M1754,634L1864,588L1808,469Z" fill="#7b63ad" stroke="#7b63ad" stroke-width="1.51"/><path d="M1650,823L1789,757L1657,763Z" fill="#6f5aa8" stroke="#6f5aa8" stroke-width="1.51"/><path d="M1697,971L1606,855L1523,1047Z" fill="#684da1" stroke="#684da1" stroke-width="1.51"/><path d="M299,926L229,1136L403,1036Z" fill="#a08bc3" stroke="#a08bc3" stroke-width="1.51"/><path d="M179,956L248,899L92,849Z" fill="#ac9dcd" stroke="#ac9dcd" stroke-width="1.51"/><path d="M973,1263L1153,1296L1047,1111Z" fill="#7257a6" stroke="#7257a6" stroke-width="1.51"/><path d="M487,1316L1153,1296L973,1263Z" fill="#795ba8" stroke="#795ba8" stroke-width="1.51"/><path d="M1467,-174L1565,-222L1278,-250Z" fill="#b7abd4" stroke="#b7abd4" stroke-width="1.51"/><path d="M1870,-101L1670,-96L1663,80Z" fill="#a68fc6" stroke="#a68fc6" stroke-width="1.51"/><path d="M330,1199L510,1187L403,1036Z" fill="#967cbc" stroke="#967cbc" stroke-width="1.51"/><path d="M403,1036L510,1187L502,966Z" fill="#9782be" stroke="#9782be" stroke-width="1.51"/><path d="M790,1232L641,1272L973,1263Z" fill="#7e62ab" stroke="#7e62ab" stroke-width="1.51"/><path d="M1571,1158L1697,971L1523,1047Z" fill="#63449d" stroke="#63449d" stroke-width="1.51"/><path d="M1670,-96L1565,-222L1532,-87Z" fill="#af9dcc" stroke="#af9dcc" stroke-width="1.51"/><path d="M1789,757L1864,588L1754,634Z" fill="#745daa" stroke="#745daa" stroke-width="1.51"/><path d="M1808,469L1975,354L1789,320Z" fill="#886eb4" stroke="#886eb4" stroke-width="1.51"/><path d="M1915,621L1864,588L1789,757Z" fill="#7359a8" stroke="#7359a8" stroke-width="1.51"/><path d="M510,1187L641,1272L643,1126Z" fill="#8b70b4" stroke="#8b70b4" stroke-width="1.51"/><path d="M1153,1296L1328,1283L1208,1122Z" fill="#694ea1" stroke="#694ea1" stroke-width="1.51"/><path d="M1459,1167L1571,1158L1523,1047Z" fill="#62429c" stroke="#62429c" stroke-width="1.51"/><path d="M451,-211L394,-235L355,-42Z" fill="#e5e5f1" stroke="#e5e5f1" stroke-width="1.51"/><path d="M1278,-250L394,-235L1049,-224Z" fill="#cecce3" stroke="#cecce3" stroke-width="1.51"/><path d="M1781,186L1842,117L1663,80Z" fill="#9d86c1" stroke="#9d86c1" stroke-width="1.51"/><path d="M2009,183L1781,186L1789,320Z" fill="#9379ba" stroke="#9379ba" stroke-width="1.51"/><path d="M1531,1329L1571,1158L1459,1167Z" fill="#5e3b97" stroke="#5e3b97" stroke-width="1.51"/><path d="M1825,994L1806,880L1697,971Z" fill="#62429c" stroke="#62429c" stroke-width="1.51"/><path d="M1697,971L1806,880L1650,823Z" fill="#684ca1" stroke="#684ca1" stroke-width="1.51"/><path d="M37,155L265,255L53,87Z" fill="#e0dfee" stroke="#e0dfee" stroke-width="1.51"/><path d="M37,155L60,319L265,255Z" fill="#dadaeb" stroke="#dadaeb" stroke-width="1.51"/><path d="M92,849L248,899L255,690Z" fill="#afa7d1" stroke="#afa7d1" stroke-width="1.51"/><path d="M60,319L40,428L222,432Z" fill="#cfcee5" stroke="#cfcee5" stroke-width="1.51"/><path d="M1917,736L1915,621L1789,757Z" fill="#6f55a6" stroke="#6f55a6" stroke-width="1.51"/><path d="M1997,460L1975,354L1808,469Z" fill="#8267af" stroke="#8267af" stroke-width="1.51"/><path d="M248,899L179,956L299,926Z" fill="#a899ca" stroke="#a899ca" stroke-width="1.51"/><path d="M49,711L255,690L172,603Z" fill="#bab5d8" stroke="#bab5d8" stroke-width="1.51"/><path d="M1670,-96L1697,-187L1565,-222Z" fill="#ae9acc" stroke="#ae9acc" stroke-width="1.51"/><path d="M1790,-187L1697,-187L1670,-96Z" fill="#ab94c9" stroke="#ab94c9" stroke-width="1.51"/><path d="M40,428L37,568L172,603Z" fill="#c6c2de" stroke="#c6c2de" stroke-width="1.51"/><path d="M394,-235L185,-83L355,-42Z" fill="#e8e7f1" stroke="#e8e7f1" stroke-width="1.51"/><path d="M1328,1283L1405,1318L1459,1167Z" fill="#61419a" stroke="#61419a" stroke-width="1.51"/><path d="M1153,1296L1405,1318L1328,1283Z" fill="#63469c" stroke="#63469c" stroke-width="1.51"/><path d="M352,1334L1405,1318L1153,1296Z" fill="#7254a4" stroke="#7254a4" stroke-width="1.51"/><path d="M37,568L49,711L172,603Z" fill="#bfbbdb" stroke="#bfbbdb" stroke-width="1.51"/><path d="M1806,880L1917,736L1789,757Z" fill="#6a4fa3" stroke="#6a4fa3" stroke-width="1.51"/><path d="M49,711L92,849L255,690Z" fill="#b4b0d6" stroke="#b4b0d6" stroke-width="1.51"/><path d="M40,428L-2,419L37,568Z" fill="#ccc9e2" stroke="#ccc9e2" stroke-width="1.51"/><path d="M37,568L-31,651L49,711Z" fill="#bfbcdb" stroke="#bfbcdb" stroke-width="1.51"/><path d="M60,319L-2,419L40,428Z" fill="#d2d1e6" stroke="#d2d1e6" stroke-width="1.51"/><path d="M-22,332L-2,419L60,319Z" fill="#d5d4e8" stroke="#d5d4e8" stroke-width="1.51"/><path d="M53,87L265,255L250,27Z" fill="#e1dfee" stroke="#e1dfee" stroke-width="1.51"/><path d="M1997,460L1864,588L1915,621Z" fill="#785daa" stroke="#785daa" stroke-width="1.51"/><path d="M1997,460L1808,469L1864,588Z" fill="#7d63ad" stroke="#7d63ad" stroke-width="1.51"/><path d="M1870,-101L1790,-187L1670,-96Z" fill="#a98fc6" stroke="#a98fc6" stroke-width="1.51"/><path d="M229,1136L299,926L179,956Z" fill="#a490c6" stroke="#a490c6" stroke-width="1.51"/><path d="M229,1136L330,1199L403,1036Z" fill="#9b82bf" stroke="#9b82bf" stroke-width="1.51"/><path d="M510,1187L487,1316L641,1272Z" fill="#8b6eb3" stroke="#8b6eb3" stroke-width="1.51"/><path d="M107,-87L53,87L250,27Z" fill="#e8e7f2" stroke="#e8e7f2" stroke-width="1.51"/><path d="M330,1199L487,1316L510,1187Z" fill="#9175b7" stroke="#9175b7" stroke-width="1.51"/><path d="M641,1272L487,1316L973,1263Z" fill="#8265ae" stroke="#8265ae" stroke-width="1.51"/><path d="M1740,1166L1697,971L1571,1158Z" fill="#5e3a98" stroke="#5e3a98" stroke-width="1.51"/><path d="M1832,1092L1825,994L1697,971Z" fill="#5e3b98" stroke="#5e3b98" stroke-width="1.51"/><path d="M1806,880L1956,885L1917,736Z" fill="#65489e" stroke="#65489e" stroke-width="1.51"/><path d="M2054,451L1997,460L2061,594Z" fill="#795ca8" stroke="#795ca8" stroke-width="1.51"/><path d="M37,155L-22,332L60,319Z" fill="#dbdaeb" stroke="#dbdaeb" stroke-width="1.51"/><path d="M-146,567L-31,651L37,568Z" fill="#c4c1de" stroke="#c4c1de" stroke-width="1.51"/><path d="M-101,159L-22,332L37,155Z" fill="#e0e0ee" stroke="#e0e0ee" stroke-width="1.51"/><path d="M42,1026L229,1136L179,956Z" fill="#a58fc5" stroke="#a58fc5" stroke-width="1.51"/><path d="M330,1199L352,1334L487,1316Z" fill="#9273b6" stroke="#9273b6" stroke-width="1.51"/><path d="M1697,-187L1790,-187L1565,-222Z" fill="#ae98ca" stroke="#ae98ca" stroke-width="1.51"/><path d="M1870,-101L1663,80L1842,117Z" fill="#a188c2" stroke="#a188c2" stroke-width="1.51"/><path d="M167,-188L107,-87L185,-83Z" fill="#edecf5" stroke="#edecf5" stroke-width="1.51"/><path d="M185,-83L107,-87L250,27Z" fill="#e9e8f3" stroke="#e9e8f3" stroke-width="1.51"/><path d="M49,711L-18,723L92,849Z" fill="#b7b2d7" stroke="#b7b2d7" stroke-width="1.51"/><path d="M92,849L42,1026L179,956Z" fill="#ab9bcb" stroke="#ab9bcb" stroke-width="1.51"/><path d="M-146,567L37,568L-2,419Z" fill="#cac7e0" stroke="#cac7e0" stroke-width="1.51"/><path d="M394,-235L167,-188L185,-83Z" fill="#ebeaf4" stroke="#ebeaf4" stroke-width="1.51"/><path d="M1405,1318L1531,1329L1459,1167Z" fill="#5e3b97" stroke="#5e3b97" stroke-width="1.51"/><path d="M352,1334L1531,1329L1405,1318Z" fill="#6c4ea0" stroke="#6c4ea0" stroke-width="1.51"/><path d="M-31,651L-18,723L49,711Z" fill="#bcb8d9" stroke="#bcb8d9" stroke-width="1.51"/><path d="M1928,-19L1870,-101L1842,117Z" fill="#a084c0" stroke="#a084c0" stroke-width="1.51"/><path d="M1692,1224L1740,1166L1571,1158Z" fill="#5a3394" stroke="#5a3394" stroke-width="1.51"/><path d="M1531,1329L1692,1224L1571,1158Z" fill="#5a3494" stroke="#5a3494" stroke-width="1.51"/><path d="M2009,183L1789,320L1975,354Z" fill="#8d72b6" stroke="#8d72b6" stroke-width="1.51"/><path d="M1980,38L1928,-19L1842,117Z" fill="#9d80be" stroke="#9d80be" stroke-width="1.51"/><path d="M2084,193L2009,183L1975,354Z" fill="#8d70b4" stroke="#8d70b4" stroke-width="1.51"/><path d="M1861,1263L1832,1092L1740,1166Z" fill="#55298f" stroke="#55298f" stroke-width="1.51"/><path d="M1740,1166L1832,1092L1697,971Z" fill="#5c3796" stroke="#5c3796" stroke-width="1.51"/><path d="M1942,975L1956,885L1806,880Z" fill="#603f9a" stroke="#603f9a" stroke-width="1.51"/><path d="M2061,594L1997,460L1915,621Z" fill="#765aa8" stroke="#765aa8" stroke-width="1.51"/><path d="M1942,975L1806,880L1825,994Z" fill="#5f3d99" stroke="#5f3d99" stroke-width="1.51"/><path d="M1997,460L2054,451L1975,354Z" fill="#8064ad" stroke="#8064ad" stroke-width="1.51"/><path d="M2061,594L1915,621L1917,736Z" fill="#6f55a4" stroke="#6f55a4" stroke-width="1.51"/><path d="M2009,183L1980,38L1842,117Z" fill="#987cbb" stroke="#987cbb" stroke-width="1.51"/><path d="M1928,-19L1992,-199L1870,-101Z" fill="#a385c1" stroke="#a385c1" stroke-width="1.51"/><path d="M-80,-61L-9,30L107,-87Z" fill="#eeedf5" stroke="#eeedf5" stroke-width="1.51"/><path d="M107,-87L-9,30L53,87Z" fill="#ebe9f3" stroke="#ebe9f3" stroke-width="1.51"/><path d="M53,87L-9,30L37,155Z" fill="#e7e6f1" stroke="#e7e6f1" stroke-width="1.51"/><path d="M2147,761L2061,594L1917,736Z" fill="#6a4ea1" stroke="#6a4ea1" stroke-width="1.51"/><path d="M487,1316L352,1334L1153,1296Z" fill="#8265ae" stroke="#8265ae" stroke-width="1.51"/><path d="M217,1256L352,1334L330,1199Z" fill="#9677b8" stroke="#9677b8" stroke-width="1.51"/><path d="M1956,885L2090,864L1917,736Z" fill="#63449c" stroke="#63449c" stroke-width="1.51"/><path d="M1832,1092L1942,975L1825,994Z" fill="#5b3495" stroke="#5b3495" stroke-width="1.51"/><path d="M229,1136L217,1256L330,1199Z" fill="#9a7dbc" stroke="#9a7dbc" stroke-width="1.51"/><path d="M-18,723L-48,836L92,849Z" fill="#b6add5" stroke="#b6add5" stroke-width="1.51"/><path d="M-131,722L-48,836L-18,723Z" fill="#b9b4d8" stroke="#b9b4d8" stroke-width="1.51"/><path d="M-131,722L-18,723L-31,651Z" fill="#bdb9da" stroke="#bdb9da" stroke-width="1.51"/><path d="M-146,567L-2,419L-225,480Z" fill="#cecbe3" stroke="#cecbe3" stroke-width="1.51"/><path d="M394,-235L102,-214L167,-188Z" fill="#eeecf5" stroke="#eeecf5" stroke-width="1.51"/><path d="M167,-188L102,-214L107,-87Z" fill="#efeef6" stroke="#efeef6" stroke-width="1.51"/><path d="M-48,836L42,1026L92,849Z" fill="#b0a1cf" stroke="#b0a1cf" stroke-width="1.51"/><path d="M34,1188L217,1256L229,1136Z" fill="#9e80be" stroke="#9e80be" stroke-width="1.51"/><path d="M2061,594L2102,377L2054,451Z" fill="#7a5ca9" stroke="#7a5ca9" stroke-width="1.51"/><path d="M2054,451L2102,377L1975,354Z" fill="#8164ad" stroke="#8164ad" stroke-width="1.51"/><path d="M2009,183L2081,82L1980,38Z" fill="#9678b9" stroke="#9678b9" stroke-width="1.51"/><path d="M-153,82L-101,159L-9,30Z" fill="#eae8f3" stroke="#eae8f3" stroke-width="1.51"/><path d="M-9,30L-101,159L37,155Z" fill="#e7e6f1" stroke="#e7e6f1" stroke-width="1.51"/><path d="M2102,377L2084,193L1975,354Z" fill="#876ab1" stroke="#876ab1" stroke-width="1.51"/><path d="M-150,289L-2,419L-22,332Z" fill="#d7d7e9" stroke="#d7d7e9" stroke-width="1.51"/><path d="M-101,159L-150,289L-22,332Z" fill="#dedeed" stroke="#dedeed" stroke-width="1.51"/><path d="M-146,567L-131,722L-31,651Z" fill="#c2bedd" stroke="#c2bedd" stroke-width="1.51"/><path d="M-48,836L-73,1007L42,1026Z" fill="#ae9ccd" stroke="#ae9ccd" stroke-width="1.51"/><path d="M2084,193L2081,82L2009,183Z" fill="#9374b7" stroke="#9374b7" stroke-width="1.51"/><path d="M1980,38L2065,-45L1928,-19Z" fill="#9d7fbd" stroke="#9d7fbd" stroke-width="1.51"/><path d="M1870,-101L1992,-199L1790,-187Z" fill="#a689c4" stroke="#a689c4" stroke-width="1.51"/><path d="M2102,377L2081,82L2084,193Z" fill="#8d6fb3" stroke="#8d6fb3" stroke-width="1.51"/><path d="M-21,-172L-80,-61L107,-87Z" fill="#f1eff6" stroke="#f1eff6" stroke-width="1.51"/><path d="M-101,159L-205,251L-150,289Z" fill="#e2e1ef" stroke="#e2e1ef" stroke-width="1.51"/><path d="M2052,1030L2090,864L1956,885Z" fill="#5b3795" stroke="#5b3795" stroke-width="1.51"/><path d="M2061,594L2147,761L2102,377Z" fill="#7154a3" stroke="#7154a3" stroke-width="1.51"/><path d="M2052,1030L1956,885L1942,975Z" fill="#5b3594" stroke="#5b3594" stroke-width="1.51"/><path d="M2052,1030L1942,975L2002,1145Z" fill="#552b8f" stroke="#552b8f" stroke-width="1.51"/><path d="M102,-214L-21,-172L107,-87Z" fill="#f1eff7" stroke="#f1eff7" stroke-width="1.51"/><path d="M2081,82L2065,-45L1980,38Z" fill="#9a7bbb" stroke="#9a7bbb" stroke-width="1.51"/><path d="M-80,-61L-153,82L-9,30Z" fill="#edecf5" stroke="#edecf5" stroke-width="1.51"/><path d="M-150,289L-225,480L-2,419Z" fill="#d5d4e8" stroke="#d5d4e8" stroke-width="1.51"/><path d="M1692,1224L1861,1263L1740,1166Z" fill="#55298f" stroke="#55298f" stroke-width="1.51"/><path d="M1531,1329L1861,1263L1692,1224Z" fill="#542b8f" stroke="#542b8f" stroke-width="1.51"/><path d="M42,1026L34,1188L229,1136Z" fill="#a388c3" stroke="#a388c3" stroke-width="1.51"/><path d="M-218,899L-73,1007L-48,836Z" fill="#b2a3d0" stroke="#b2a3d0" stroke-width="1.51"/><path d="M2065,-45L1992,-199L1928,-19Z" fill="#a082be" stroke="#a082be" stroke-width="1.51"/><path d="M1790,-187L1992,-199L1565,-222Z" fill="#ab91c8" stroke="#ab91c8" stroke-width="1.51"/><path d="M1565,-222L1992,-199L1278,-250Z" fill="#b19ecd" stroke="#b19ecd" stroke-width="1.51"/><path d="M2090,864L2147,761L1917,736Z" fill="#63459c" stroke="#63459c" stroke-width="1.51"/><path d="M2102,377L2147,761L2081,82Z" fill="#7e60ab" stroke="#7e60ab" stroke-width="1.51"/><path d="M-82,1113L34,1188L42,1026Z" fill="#a68cc5" stroke="#a68cc5" stroke-width="1.51"/><path d="M217,1256L82,1288L352,1334Z" fill="#9878b9" stroke="#9878b9" stroke-width="1.51"/><path d="M-153,82L-205,251L-101,159Z" fill="#e7e6f1" stroke="#e7e6f1" stroke-width="1.51"/><path d="M-146,567L-225,480L-131,722Z" fill="#c7c4e0" stroke="#c7c4e0" stroke-width="1.51"/><path d="M-196,1094L-82,1113L-73,1007Z" fill="#aa92c8" stroke="#aa92c8" stroke-width="1.51"/><path d="M-205,251L-225,480L-150,289Z" fill="#dbdaec" stroke="#dbdaec" stroke-width="1.51"/><path d="M2090,864L2108,1179L2147,761Z" fill="#583292" stroke="#583292" stroke-width="1.51"/><path d="M2002,1145L1942,975L1832,1092Z" fill="#562c91" stroke="#562c91" stroke-width="1.51"/><path d="M1861,1263L2002,1145L1832,1092Z" fill="#52248d" stroke="#52248d" stroke-width="1.51"/><path d="M-22,1299L82,1288L34,1188Z" fill="#9f7fbd" stroke="#9f7fbd" stroke-width="1.51"/><path d="M34,1188L82,1288L217,1256Z" fill="#9d7ebc" stroke="#9d7ebc" stroke-width="1.51"/><path d="M2065,-45L2063,-183L1992,-199Z" fill="#a181be" stroke="#a181be" stroke-width="1.51"/><path d="M2081,82L2063,-183L2065,-45Z" fill="#9d7dbb" stroke="#9d7dbb" stroke-width="1.51"/><path d="M2147,761L2063,-183L2081,82Z" fill="#8c6eb3" stroke="#8c6eb3" stroke-width="1.51"/><path d="M-73,1007L-82,1113L42,1026Z" fill="#aa93c8" stroke="#aa93c8" stroke-width="1.51"/><path d="M-218,899L-48,836L-131,722Z" fill="#b8afd5" stroke="#b8afd5" stroke-width="1.51"/><path d="M-225,480L-218,899L-131,722Z" fill="#bfbcdc" stroke="#bfbcdc" stroke-width="1.51"/><path d="M-209,1301L-22,1299L-82,1113Z" fill="#a384c0" stroke="#a384c0" stroke-width="1.51"/><path d="M-82,1113L-22,1299L34,1188Z" fill="#a385c0" stroke="#a385c0" stroke-width="1.51"/><path d="M82,1288L-22,1299L352,1334Z" fill="#9979b9" stroke="#9979b9" stroke-width="1.51"/><path d="M-80,-61L-236,-121L-153,82Z" fill="#f2f0f7" stroke="#f2f0f7" stroke-width="1.51"/><path d="M-153,82L-236,-121L-205,251Z" fill="#edecf5" stroke="#edecf5" stroke-width="1.51"/><path d="M-205,251L-236,-121L-225,480Z" fill="#e5e5f1" stroke="#e5e5f1" stroke-width="1.51"/><path d="M-21,-172L-181,-178L-80,-61Z" fill="#f5f3f8" stroke="#f5f3f8" stroke-width="1.51"/><path d="M102,-214L-181,-178L-21,-172Z" fill="#f5f3f8" stroke="#f5f3f8" stroke-width="1.51"/><path d="M-218,899L-211,1030L-73,1007Z" fill="#b09dcd" stroke="#b09dcd" stroke-width="1.51"/><path d="M1861,1263L2008,1299L2002,1145Z" fill="#4d1b88" stroke="#4d1b88" stroke-width="1.51"/><path d="M2002,1145L2108,1179L2052,1030Z" fill="#4f208b" stroke="#4f208b" stroke-width="1.51"/><path d="M2052,1030L2108,1179L2090,864Z" fill="#542a8e" stroke="#542a8e" stroke-width="1.51"/><path d="M1531,1329L2008,1299L1861,1263Z" fill="#4f218a" stroke="#4f218a" stroke-width="1.51"/><path d="M2008,1299L2108,1179L2002,1145Z" fill="#4b1987" stroke="#4b1987" stroke-width="1.51"/><path d="M-211,1030L-196,1094L-73,1007Z" fill="#ad96ca" stroke="#ad96ca" stroke-width="1.51"/><path d="M-181,-178L-236,-121L-80,-61Z" fill="#f5f4f9" stroke="#f5f4f9" stroke-width="1.51"/><path d="M-225,480L-236,-121L-218,899Z" fill="#d5d4e8" stroke="#d5d4e8" stroke-width="1.51"/><path d="M2008,1299L2117,1315L2108,1179Z" fill="#471183" stroke="#471183" stroke-width="1.51"/><path d="M2108,1179L2117,1315L2147,761Z" fill="#4f218a" stroke="#4f218a" stroke-width="1.51"/><path d="M1531,1329L2117,1315L2008,1299Z" fill="#4b1887" stroke="#4b1887" stroke-width="1.51"/><path d="M-211,1030L-209,1301L-196,1094Z" fill="#a98dc5" stroke="#a98dc5" stroke-width="1.51"/><path d="M-196,1094L-209,1301L-82,1113Z" fill="#a78ac4" stroke="#a78ac4" stroke-width="1.51"/><path d="M-22,1299L-209,1301L352,1334Z" fill="#9d7cba" stroke="#9d7cba" stroke-width="1.51"/><path d="M-218,899L-209,1301L-211,1030Z" fill="#ac94c9" stroke="#ac94c9" stroke-width="1.51"/></svg>